%TF.GenerationSoftware,KiCad,Pcbnew,7.0.8-7.0.8~ubuntu22.04.1*%
%TF.CreationDate,2023-10-15T23:00:33+01:00*%
%TF.ProjectId,jfet-555-bypass,6a666574-2d35-4353-952d-627970617373,rev?*%
%TF.SameCoordinates,Original*%
%TF.FileFunction,Copper,L2,Bot*%
%TF.FilePolarity,Positive*%
%FSLAX46Y46*%
G04 Gerber Fmt 4.6, Leading zero omitted, Abs format (unit mm)*
G04 Created by KiCad (PCBNEW 7.0.8-7.0.8~ubuntu22.04.1) date 2023-10-15 23:00:33*
%MOMM*%
%LPD*%
G01*
G04 APERTURE LIST*
%TA.AperFunction,ComponentPad*%
%ADD10R,1.700000X1.700000*%
%TD*%
%TA.AperFunction,ComponentPad*%
%ADD11O,1.700000X1.700000*%
%TD*%
%TA.AperFunction,ViaPad*%
%ADD12C,0.800000*%
%TD*%
%TA.AperFunction,Conductor*%
%ADD13C,0.250000*%
%TD*%
G04 APERTURE END LIST*
D10*
%TO.P,J6,1,Pin_1*%
%TO.N,/fx_send_conn*%
X132080000Y-36830000D03*
D11*
%TO.P,J6,2,Pin_2*%
%TO.N,/fx_return_conn*%
X132080000Y-39370000D03*
%TD*%
D10*
%TO.P,J5,1,Pin_1*%
%TO.N,/clean_in_conn*%
X132080000Y-28194000D03*
D11*
%TO.P,J5,2,Pin_2*%
%TO.N,/clean_out_conn*%
X132080000Y-30734000D03*
%TD*%
%TO.P,J4,2,Pin_2*%
%TO.N,Net-(D4-A)*%
X130048000Y-52065000D03*
D10*
%TO.P,J4,1,Pin_1*%
%TO.N,/bypass/led_cathode_vdd*%
X130048000Y-49525000D03*
%TD*%
%TO.P,J1,1,Pin_1*%
%TO.N,Net-(J1-Pin_1)*%
X151130000Y-51816000D03*
D11*
%TO.P,J1,2,Pin_2*%
%TO.N,Net-(J1-Pin_2)*%
X153670000Y-51816000D03*
%TD*%
D10*
%TO.P,J3,1,Pin_1*%
%TO.N,GND*%
X152400000Y-30480000D03*
D11*
%TO.P,J3,2,Pin_2*%
%TO.N,+9V*%
X152400000Y-27940000D03*
%TD*%
D12*
%TO.N,GND*%
X133858000Y-45974000D03*
X130048000Y-54610000D03*
X127000000Y-42926000D03*
X133858000Y-25908000D03*
X150622000Y-38100000D03*
X147320000Y-38862000D03*
X148082000Y-41656000D03*
X147320000Y-45212000D03*
X143256000Y-45466000D03*
X141478000Y-53594000D03*
X132588000Y-51308000D03*
X127762000Y-34798000D03*
X156464000Y-29210000D03*
X159004000Y-27686000D03*
X158242000Y-25400000D03*
X155448000Y-25400000D03*
X149860000Y-25654000D03*
X147828000Y-27686000D03*
X149860000Y-29210000D03*
X147828000Y-30480000D03*
X149860000Y-32258000D03*
X147828000Y-34036000D03*
X133350000Y-33020000D03*
X134620000Y-35052000D03*
X137160000Y-35052000D03*
X139446000Y-35052000D03*
X143256000Y-34798000D03*
X153162000Y-33020000D03*
X157226000Y-31242000D03*
X155956000Y-33020000D03*
X157226000Y-34798000D03*
X155956000Y-36830000D03*
X155194000Y-42672000D03*
X156464000Y-46990000D03*
X156464000Y-49784000D03*
X156464000Y-53340000D03*
X158496000Y-51562000D03*
X158496000Y-54610000D03*
X147828000Y-49022000D03*
X147828000Y-52070000D03*
X136398000Y-45466000D03*
X139446000Y-45466000D03*
X133096000Y-48006000D03*
X133350000Y-53975000D03*
X127000000Y-53975000D03*
X127000000Y-45720000D03*
X127762000Y-40640000D03*
X127762000Y-32512000D03*
X127762000Y-26035000D03*
%TO.N,Net-(D1-K)*%
X151892000Y-42926000D03*
X141224000Y-47498000D03*
X141224000Y-42672000D03*
X141224000Y-37338000D03*
X141224000Y-26162000D03*
X141224000Y-31496000D03*
%TD*%
D13*
%TO.N,Net-(D1-K)*%
X147320000Y-47498000D02*
X151892000Y-42926000D01*
X141224000Y-47498000D02*
X147320000Y-47498000D01*
X141224000Y-37338000D02*
X141224000Y-42672000D01*
X141224000Y-26162000D02*
X141224000Y-31496000D01*
%TD*%
%TA.AperFunction,Conductor*%
%TO.N,GND*%
G36*
X159662539Y-23688185D02*
G01*
X159708294Y-23740989D01*
X159719500Y-23792500D01*
X159719500Y-55455500D01*
X159699815Y-55522539D01*
X159647011Y-55568294D01*
X159595500Y-55579500D01*
X126154500Y-55579500D01*
X126087461Y-55559815D01*
X126041706Y-55507011D01*
X126030500Y-55455500D01*
X126030500Y-52065000D01*
X128692341Y-52065000D01*
X128712936Y-52300403D01*
X128712938Y-52300413D01*
X128774094Y-52528655D01*
X128774096Y-52528659D01*
X128774097Y-52528663D01*
X128863778Y-52720984D01*
X128873965Y-52742830D01*
X128873967Y-52742834D01*
X128952152Y-52854493D01*
X129009505Y-52936401D01*
X129176599Y-53103495D01*
X129266577Y-53166498D01*
X129370165Y-53239032D01*
X129370167Y-53239033D01*
X129370170Y-53239035D01*
X129584337Y-53338903D01*
X129812592Y-53400063D01*
X130000918Y-53416539D01*
X130047999Y-53420659D01*
X130048000Y-53420659D01*
X130048001Y-53420659D01*
X130087234Y-53417226D01*
X130283408Y-53400063D01*
X130511663Y-53338903D01*
X130725830Y-53239035D01*
X130919401Y-53103495D01*
X131086495Y-52936401D01*
X131222035Y-52742830D01*
X131235539Y-52713870D01*
X149779500Y-52713870D01*
X149779501Y-52713876D01*
X149785908Y-52773483D01*
X149836202Y-52908328D01*
X149836206Y-52908335D01*
X149922452Y-53023544D01*
X149922455Y-53023547D01*
X150037664Y-53109793D01*
X150037671Y-53109797D01*
X150172517Y-53160091D01*
X150172516Y-53160091D01*
X150179444Y-53160835D01*
X150232127Y-53166500D01*
X152027872Y-53166499D01*
X152087483Y-53160091D01*
X152222331Y-53109796D01*
X152337546Y-53023546D01*
X152423796Y-52908331D01*
X152472810Y-52776916D01*
X152514681Y-52720984D01*
X152580145Y-52696566D01*
X152648418Y-52711417D01*
X152676673Y-52732569D01*
X152798599Y-52854495D01*
X152895384Y-52922265D01*
X152992165Y-52990032D01*
X152992167Y-52990033D01*
X152992170Y-52990035D01*
X153206337Y-53089903D01*
X153434592Y-53151063D01*
X153611034Y-53166500D01*
X153669999Y-53171659D01*
X153670000Y-53171659D01*
X153670001Y-53171659D01*
X153728966Y-53166500D01*
X153905408Y-53151063D01*
X154133663Y-53089903D01*
X154347830Y-52990035D01*
X154541401Y-52854495D01*
X154708495Y-52687401D01*
X154844035Y-52493830D01*
X154943903Y-52279663D01*
X155005063Y-52051408D01*
X155025659Y-51816000D01*
X155005063Y-51580592D01*
X154943903Y-51352337D01*
X154844035Y-51138171D01*
X154797474Y-51071674D01*
X154708494Y-50944597D01*
X154541402Y-50777506D01*
X154541395Y-50777501D01*
X154347834Y-50641967D01*
X154347830Y-50641965D01*
X154294996Y-50617328D01*
X154133663Y-50542097D01*
X154133659Y-50542096D01*
X154133655Y-50542094D01*
X153905413Y-50480938D01*
X153905403Y-50480936D01*
X153670001Y-50460341D01*
X153669999Y-50460341D01*
X153434596Y-50480936D01*
X153434586Y-50480938D01*
X153206344Y-50542094D01*
X153206335Y-50542098D01*
X152992171Y-50641964D01*
X152992169Y-50641965D01*
X152798600Y-50777503D01*
X152676673Y-50899430D01*
X152615350Y-50932914D01*
X152545658Y-50927930D01*
X152489725Y-50886058D01*
X152472810Y-50855081D01*
X152423797Y-50723671D01*
X152423793Y-50723664D01*
X152337547Y-50608455D01*
X152337544Y-50608452D01*
X152222335Y-50522206D01*
X152222328Y-50522202D01*
X152087482Y-50471908D01*
X152087483Y-50471908D01*
X152027883Y-50465501D01*
X152027881Y-50465500D01*
X152027873Y-50465500D01*
X152027864Y-50465500D01*
X150232129Y-50465500D01*
X150232123Y-50465501D01*
X150172516Y-50471908D01*
X150037671Y-50522202D01*
X150037664Y-50522206D01*
X149922455Y-50608452D01*
X149922452Y-50608455D01*
X149836206Y-50723664D01*
X149836202Y-50723671D01*
X149785908Y-50858517D01*
X149779501Y-50918116D01*
X149779500Y-50918135D01*
X149779500Y-52713870D01*
X131235539Y-52713870D01*
X131321903Y-52528663D01*
X131383063Y-52300408D01*
X131403659Y-52065000D01*
X131383063Y-51829592D01*
X131321903Y-51601337D01*
X131222035Y-51387171D01*
X131086495Y-51193599D01*
X130964567Y-51071671D01*
X130931084Y-51010351D01*
X130936068Y-50940659D01*
X130977939Y-50884725D01*
X131008915Y-50867810D01*
X131140331Y-50818796D01*
X131255546Y-50732546D01*
X131341796Y-50617331D01*
X131392091Y-50482483D01*
X131398500Y-50422873D01*
X131398499Y-48627128D01*
X131392091Y-48567517D01*
X131341796Y-48432669D01*
X131341795Y-48432668D01*
X131341793Y-48432664D01*
X131255547Y-48317455D01*
X131255544Y-48317452D01*
X131140335Y-48231206D01*
X131140328Y-48231202D01*
X131005482Y-48180908D01*
X131005483Y-48180908D01*
X130945883Y-48174501D01*
X130945881Y-48174500D01*
X130945873Y-48174500D01*
X130945864Y-48174500D01*
X129150129Y-48174500D01*
X129150123Y-48174501D01*
X129090516Y-48180908D01*
X128955671Y-48231202D01*
X128955664Y-48231206D01*
X128840455Y-48317452D01*
X128840452Y-48317455D01*
X128754206Y-48432664D01*
X128754202Y-48432671D01*
X128703908Y-48567517D01*
X128697501Y-48627116D01*
X128697501Y-48627123D01*
X128697500Y-48627135D01*
X128697500Y-50422870D01*
X128697501Y-50422876D01*
X128703908Y-50482483D01*
X128754202Y-50617328D01*
X128754206Y-50617335D01*
X128840452Y-50732544D01*
X128840455Y-50732547D01*
X128955664Y-50818793D01*
X128955671Y-50818797D01*
X129087081Y-50867810D01*
X129143015Y-50909681D01*
X129167432Y-50975145D01*
X129152580Y-51043418D01*
X129131430Y-51071673D01*
X129009503Y-51193600D01*
X128873965Y-51387169D01*
X128873964Y-51387171D01*
X128774098Y-51601335D01*
X128774094Y-51601344D01*
X128712938Y-51829586D01*
X128712936Y-51829596D01*
X128692341Y-52064999D01*
X128692341Y-52065000D01*
X126030500Y-52065000D01*
X126030500Y-47498000D01*
X140318540Y-47498000D01*
X140338326Y-47686256D01*
X140338327Y-47686259D01*
X140396818Y-47866277D01*
X140396821Y-47866284D01*
X140491467Y-48030216D01*
X140612401Y-48164526D01*
X140618129Y-48170888D01*
X140771265Y-48282148D01*
X140771270Y-48282151D01*
X140944192Y-48359142D01*
X140944197Y-48359144D01*
X141129354Y-48398500D01*
X141129355Y-48398500D01*
X141318644Y-48398500D01*
X141318646Y-48398500D01*
X141503803Y-48359144D01*
X141676730Y-48282151D01*
X141829871Y-48170888D01*
X141832788Y-48167647D01*
X141835600Y-48164526D01*
X141895087Y-48127879D01*
X141927748Y-48123500D01*
X147237257Y-48123500D01*
X147252877Y-48125224D01*
X147252904Y-48124939D01*
X147260660Y-48125671D01*
X147260667Y-48125673D01*
X147329814Y-48123500D01*
X147359350Y-48123500D01*
X147366228Y-48122630D01*
X147372041Y-48122172D01*
X147418627Y-48120709D01*
X147437869Y-48115117D01*
X147456912Y-48111174D01*
X147476792Y-48108664D01*
X147520122Y-48091507D01*
X147525646Y-48089617D01*
X147529396Y-48088527D01*
X147570390Y-48076618D01*
X147587629Y-48066422D01*
X147605103Y-48057862D01*
X147623727Y-48050488D01*
X147623727Y-48050487D01*
X147623732Y-48050486D01*
X147661449Y-48023082D01*
X147666305Y-48019892D01*
X147706420Y-47996170D01*
X147720589Y-47981999D01*
X147735379Y-47969368D01*
X147751587Y-47957594D01*
X147781299Y-47921676D01*
X147785212Y-47917376D01*
X151839772Y-43862819D01*
X151901095Y-43829334D01*
X151927453Y-43826500D01*
X151986644Y-43826500D01*
X151986646Y-43826500D01*
X152171803Y-43787144D01*
X152344730Y-43710151D01*
X152497871Y-43598888D01*
X152624533Y-43458216D01*
X152719179Y-43294284D01*
X152777674Y-43114256D01*
X152797460Y-42926000D01*
X152777674Y-42737744D01*
X152719179Y-42557716D01*
X152624533Y-42393784D01*
X152497871Y-42253112D01*
X152497870Y-42253111D01*
X152344734Y-42141851D01*
X152344729Y-42141848D01*
X152171807Y-42064857D01*
X152171802Y-42064855D01*
X152026001Y-42033865D01*
X151986646Y-42025500D01*
X151797354Y-42025500D01*
X151764897Y-42032398D01*
X151612197Y-42064855D01*
X151612192Y-42064857D01*
X151439270Y-42141848D01*
X151439265Y-42141851D01*
X151286129Y-42253111D01*
X151159466Y-42393785D01*
X151064821Y-42557715D01*
X151064818Y-42557722D01*
X151006327Y-42737740D01*
X151006326Y-42737744D01*
X150988679Y-42905649D01*
X150962094Y-42970263D01*
X150953039Y-42980368D01*
X147097228Y-46836181D01*
X147035905Y-46869666D01*
X147009547Y-46872500D01*
X141927748Y-46872500D01*
X141860709Y-46852815D01*
X141835600Y-46831474D01*
X141829873Y-46825114D01*
X141829869Y-46825110D01*
X141676734Y-46713851D01*
X141676729Y-46713848D01*
X141503807Y-46636857D01*
X141503802Y-46636855D01*
X141358001Y-46605865D01*
X141318646Y-46597500D01*
X141129354Y-46597500D01*
X141096897Y-46604398D01*
X140944197Y-46636855D01*
X140944192Y-46636857D01*
X140771270Y-46713848D01*
X140771265Y-46713851D01*
X140618129Y-46825111D01*
X140491466Y-46965785D01*
X140396821Y-47129715D01*
X140396818Y-47129722D01*
X140338327Y-47309740D01*
X140338326Y-47309744D01*
X140318540Y-47498000D01*
X126030500Y-47498000D01*
X126030500Y-42672000D01*
X140318540Y-42672000D01*
X140338326Y-42860256D01*
X140338327Y-42860259D01*
X140396818Y-43040277D01*
X140396821Y-43040284D01*
X140491467Y-43204216D01*
X140572559Y-43294277D01*
X140618129Y-43344888D01*
X140771265Y-43456148D01*
X140771270Y-43456151D01*
X140944192Y-43533142D01*
X140944197Y-43533144D01*
X141129354Y-43572500D01*
X141129355Y-43572500D01*
X141318644Y-43572500D01*
X141318646Y-43572500D01*
X141503803Y-43533144D01*
X141676730Y-43456151D01*
X141829871Y-43344888D01*
X141956533Y-43204216D01*
X142051179Y-43040284D01*
X142109674Y-42860256D01*
X142129460Y-42672000D01*
X142109674Y-42483744D01*
X142051179Y-42303716D01*
X141956533Y-42139784D01*
X141881350Y-42056284D01*
X141851120Y-41993292D01*
X141849500Y-41973312D01*
X141849500Y-38036687D01*
X141869185Y-37969648D01*
X141881350Y-37953715D01*
X141909608Y-37922331D01*
X141956533Y-37870216D01*
X142051179Y-37706284D01*
X142109674Y-37526256D01*
X142129460Y-37338000D01*
X142109674Y-37149744D01*
X142051179Y-36969716D01*
X141956533Y-36805784D01*
X141829871Y-36665112D01*
X141829870Y-36665111D01*
X141676734Y-36553851D01*
X141676729Y-36553848D01*
X141503807Y-36476857D01*
X141503802Y-36476855D01*
X141358001Y-36445865D01*
X141318646Y-36437500D01*
X141129354Y-36437500D01*
X141096897Y-36444398D01*
X140944197Y-36476855D01*
X140944192Y-36476857D01*
X140771270Y-36553848D01*
X140771265Y-36553851D01*
X140618129Y-36665111D01*
X140491466Y-36805785D01*
X140396821Y-36969715D01*
X140396818Y-36969722D01*
X140338327Y-37149740D01*
X140338326Y-37149744D01*
X140318540Y-37338000D01*
X140338326Y-37526256D01*
X140338327Y-37526259D01*
X140396818Y-37706277D01*
X140396821Y-37706284D01*
X140491467Y-37870216D01*
X140534772Y-37918310D01*
X140566650Y-37953715D01*
X140596880Y-38016706D01*
X140598500Y-38036687D01*
X140598500Y-41973312D01*
X140578815Y-42040351D01*
X140566650Y-42056284D01*
X140491466Y-42139784D01*
X140396821Y-42303715D01*
X140396818Y-42303722D01*
X140338327Y-42483740D01*
X140338326Y-42483744D01*
X140318540Y-42672000D01*
X126030500Y-42672000D01*
X126030500Y-39370000D01*
X130724341Y-39370000D01*
X130744936Y-39605403D01*
X130744938Y-39605413D01*
X130806094Y-39833655D01*
X130806096Y-39833659D01*
X130806097Y-39833663D01*
X130905965Y-40047830D01*
X130905967Y-40047834D01*
X131014281Y-40202521D01*
X131041505Y-40241401D01*
X131208599Y-40408495D01*
X131305384Y-40476265D01*
X131402165Y-40544032D01*
X131402167Y-40544033D01*
X131402170Y-40544035D01*
X131616337Y-40643903D01*
X131844592Y-40705063D01*
X132032918Y-40721539D01*
X132079999Y-40725659D01*
X132080000Y-40725659D01*
X132080001Y-40725659D01*
X132119234Y-40722226D01*
X132315408Y-40705063D01*
X132543663Y-40643903D01*
X132757830Y-40544035D01*
X132951401Y-40408495D01*
X133118495Y-40241401D01*
X133254035Y-40047830D01*
X133353903Y-39833663D01*
X133415063Y-39605408D01*
X133435659Y-39370000D01*
X133415063Y-39134592D01*
X133353903Y-38906337D01*
X133254035Y-38692171D01*
X133118495Y-38498599D01*
X132996567Y-38376671D01*
X132963084Y-38315351D01*
X132968068Y-38245659D01*
X133009939Y-38189725D01*
X133040915Y-38172810D01*
X133172331Y-38123796D01*
X133287546Y-38037546D01*
X133373796Y-37922331D01*
X133424091Y-37787483D01*
X133430500Y-37727873D01*
X133430499Y-35932128D01*
X133424091Y-35872517D01*
X133373796Y-35737669D01*
X133373795Y-35737668D01*
X133373793Y-35737664D01*
X133287547Y-35622455D01*
X133287544Y-35622452D01*
X133172335Y-35536206D01*
X133172328Y-35536202D01*
X133037482Y-35485908D01*
X133037483Y-35485908D01*
X132977883Y-35479501D01*
X132977881Y-35479500D01*
X132977873Y-35479500D01*
X132977864Y-35479500D01*
X131182129Y-35479500D01*
X131182123Y-35479501D01*
X131122516Y-35485908D01*
X130987671Y-35536202D01*
X130987664Y-35536206D01*
X130872455Y-35622452D01*
X130872452Y-35622455D01*
X130786206Y-35737664D01*
X130786202Y-35737671D01*
X130735908Y-35872517D01*
X130729501Y-35932116D01*
X130729501Y-35932123D01*
X130729500Y-35932135D01*
X130729500Y-37727870D01*
X130729501Y-37727876D01*
X130735908Y-37787483D01*
X130786202Y-37922328D01*
X130786206Y-37922335D01*
X130872452Y-38037544D01*
X130872455Y-38037547D01*
X130987664Y-38123793D01*
X130987671Y-38123797D01*
X131119081Y-38172810D01*
X131175015Y-38214681D01*
X131199432Y-38280145D01*
X131184580Y-38348418D01*
X131163430Y-38376673D01*
X131041503Y-38498600D01*
X130905965Y-38692169D01*
X130905964Y-38692171D01*
X130806098Y-38906335D01*
X130806094Y-38906344D01*
X130744938Y-39134586D01*
X130744936Y-39134596D01*
X130724341Y-39369999D01*
X130724341Y-39370000D01*
X126030500Y-39370000D01*
X126030500Y-30734000D01*
X130724341Y-30734000D01*
X130744936Y-30969403D01*
X130744938Y-30969413D01*
X130806094Y-31197655D01*
X130806096Y-31197659D01*
X130806097Y-31197663D01*
X130857427Y-31307740D01*
X130905965Y-31411830D01*
X130905967Y-31411834D01*
X131014281Y-31566521D01*
X131041505Y-31605401D01*
X131208599Y-31772495D01*
X131209826Y-31773354D01*
X131402165Y-31908032D01*
X131402167Y-31908033D01*
X131402170Y-31908035D01*
X131616337Y-32007903D01*
X131844592Y-32069063D01*
X132032918Y-32085539D01*
X132079999Y-32089659D01*
X132080000Y-32089659D01*
X132080001Y-32089659D01*
X132119234Y-32086226D01*
X132315408Y-32069063D01*
X132543663Y-32007903D01*
X132757830Y-31908035D01*
X132951401Y-31772495D01*
X133118495Y-31605401D01*
X133195098Y-31496000D01*
X140318540Y-31496000D01*
X140338326Y-31684256D01*
X140338327Y-31684259D01*
X140396818Y-31864277D01*
X140396821Y-31864284D01*
X140491467Y-32028216D01*
X140528246Y-32069063D01*
X140618129Y-32168888D01*
X140771265Y-32280148D01*
X140771270Y-32280151D01*
X140944192Y-32357142D01*
X140944197Y-32357144D01*
X141129354Y-32396500D01*
X141129355Y-32396500D01*
X141318644Y-32396500D01*
X141318646Y-32396500D01*
X141503803Y-32357144D01*
X141676730Y-32280151D01*
X141829871Y-32168888D01*
X141956533Y-32028216D01*
X142051179Y-31864284D01*
X142109674Y-31684256D01*
X142129460Y-31496000D01*
X142109674Y-31307744D01*
X142051179Y-31127716D01*
X141956533Y-30963784D01*
X141881350Y-30880284D01*
X141851120Y-30817292D01*
X141849500Y-30797312D01*
X141849500Y-27940000D01*
X151044341Y-27940000D01*
X151064936Y-28175403D01*
X151064938Y-28175413D01*
X151126094Y-28403655D01*
X151126096Y-28403659D01*
X151126097Y-28403663D01*
X151225965Y-28617830D01*
X151225967Y-28617834D01*
X151334281Y-28772521D01*
X151361501Y-28811396D01*
X151361506Y-28811402D01*
X151483818Y-28933714D01*
X151517303Y-28995037D01*
X151512319Y-29064729D01*
X151470447Y-29120662D01*
X151439471Y-29137577D01*
X151307912Y-29186646D01*
X151307906Y-29186649D01*
X151192812Y-29272809D01*
X151192809Y-29272812D01*
X151106649Y-29387906D01*
X151106645Y-29387913D01*
X151056403Y-29522620D01*
X151056401Y-29522627D01*
X151050000Y-29582155D01*
X151050000Y-30230000D01*
X151966314Y-30230000D01*
X151940507Y-30270156D01*
X151900000Y-30408111D01*
X151900000Y-30551889D01*
X151940507Y-30689844D01*
X151966314Y-30730000D01*
X151050000Y-30730000D01*
X151050000Y-31377844D01*
X151056401Y-31437372D01*
X151056403Y-31437379D01*
X151106645Y-31572086D01*
X151106649Y-31572093D01*
X151192809Y-31687187D01*
X151192812Y-31687190D01*
X151307906Y-31773350D01*
X151307913Y-31773354D01*
X151442620Y-31823596D01*
X151442627Y-31823598D01*
X151502155Y-31829999D01*
X151502172Y-31830000D01*
X152150000Y-31830000D01*
X152150000Y-30915501D01*
X152257685Y-30964680D01*
X152364237Y-30980000D01*
X152435763Y-30980000D01*
X152542315Y-30964680D01*
X152650000Y-30915501D01*
X152650000Y-31830000D01*
X153297828Y-31830000D01*
X153297844Y-31829999D01*
X153357372Y-31823598D01*
X153357379Y-31823596D01*
X153492086Y-31773354D01*
X153492093Y-31773350D01*
X153607187Y-31687190D01*
X153607190Y-31687187D01*
X153693350Y-31572093D01*
X153693354Y-31572086D01*
X153743596Y-31437379D01*
X153743598Y-31437372D01*
X153749999Y-31377844D01*
X153750000Y-31377827D01*
X153750000Y-30730000D01*
X152833686Y-30730000D01*
X152859493Y-30689844D01*
X152900000Y-30551889D01*
X152900000Y-30408111D01*
X152859493Y-30270156D01*
X152833686Y-30230000D01*
X153750000Y-30230000D01*
X153750000Y-29582172D01*
X153749999Y-29582155D01*
X153743598Y-29522627D01*
X153743596Y-29522620D01*
X153693354Y-29387913D01*
X153693350Y-29387906D01*
X153607190Y-29272812D01*
X153607187Y-29272809D01*
X153492093Y-29186649D01*
X153492088Y-29186646D01*
X153360528Y-29137577D01*
X153304595Y-29095705D01*
X153280178Y-29030241D01*
X153295030Y-28961968D01*
X153316175Y-28933720D01*
X153438495Y-28811401D01*
X153574035Y-28617830D01*
X153673903Y-28403663D01*
X153735063Y-28175408D01*
X153755659Y-27940000D01*
X153735063Y-27704592D01*
X153673903Y-27476337D01*
X153574035Y-27262171D01*
X153556072Y-27236516D01*
X153438494Y-27068597D01*
X153271402Y-26901506D01*
X153271395Y-26901501D01*
X153077834Y-26765967D01*
X153077830Y-26765965D01*
X153077828Y-26765964D01*
X152863663Y-26666097D01*
X152863659Y-26666096D01*
X152863655Y-26666094D01*
X152635413Y-26604938D01*
X152635403Y-26604936D01*
X152400001Y-26584341D01*
X152399999Y-26584341D01*
X152164596Y-26604936D01*
X152164586Y-26604938D01*
X151936344Y-26666094D01*
X151936335Y-26666098D01*
X151722171Y-26765964D01*
X151722169Y-26765965D01*
X151528597Y-26901505D01*
X151361505Y-27068597D01*
X151225965Y-27262169D01*
X151225964Y-27262171D01*
X151126098Y-27476335D01*
X151126094Y-27476344D01*
X151064938Y-27704586D01*
X151064936Y-27704596D01*
X151044341Y-27939999D01*
X151044341Y-27940000D01*
X141849500Y-27940000D01*
X141849500Y-26860687D01*
X141869185Y-26793648D01*
X141881350Y-26777715D01*
X141899891Y-26757122D01*
X141956533Y-26694216D01*
X142051179Y-26530284D01*
X142109674Y-26350256D01*
X142129460Y-26162000D01*
X142109674Y-25973744D01*
X142051179Y-25793716D01*
X141956533Y-25629784D01*
X141829871Y-25489112D01*
X141829870Y-25489111D01*
X141676734Y-25377851D01*
X141676729Y-25377848D01*
X141503807Y-25300857D01*
X141503802Y-25300855D01*
X141358001Y-25269865D01*
X141318646Y-25261500D01*
X141129354Y-25261500D01*
X141096897Y-25268398D01*
X140944197Y-25300855D01*
X140944192Y-25300857D01*
X140771270Y-25377848D01*
X140771265Y-25377851D01*
X140618129Y-25489111D01*
X140491466Y-25629785D01*
X140396821Y-25793715D01*
X140396818Y-25793722D01*
X140338327Y-25973740D01*
X140338326Y-25973744D01*
X140318540Y-26162000D01*
X140338326Y-26350256D01*
X140338327Y-26350259D01*
X140396818Y-26530277D01*
X140396821Y-26530284D01*
X140491467Y-26694216D01*
X140534772Y-26742310D01*
X140566650Y-26777715D01*
X140596880Y-26840706D01*
X140598500Y-26860687D01*
X140598500Y-30797312D01*
X140578815Y-30864351D01*
X140566650Y-30880284D01*
X140491466Y-30963784D01*
X140396821Y-31127715D01*
X140396818Y-31127722D01*
X140374093Y-31197664D01*
X140338326Y-31307744D01*
X140318540Y-31496000D01*
X133195098Y-31496000D01*
X133254035Y-31411830D01*
X133353903Y-31197663D01*
X133415063Y-30969408D01*
X133435659Y-30734000D01*
X133415063Y-30498592D01*
X133353903Y-30270337D01*
X133254035Y-30056171D01*
X133118495Y-29862599D01*
X132996567Y-29740671D01*
X132963084Y-29679351D01*
X132968068Y-29609659D01*
X133009939Y-29553725D01*
X133040915Y-29536810D01*
X133172331Y-29487796D01*
X133287546Y-29401546D01*
X133373796Y-29286331D01*
X133424091Y-29151483D01*
X133430500Y-29091873D01*
X133430499Y-27296128D01*
X133424091Y-27236517D01*
X133373796Y-27101669D01*
X133373795Y-27101668D01*
X133373793Y-27101664D01*
X133287547Y-26986455D01*
X133287544Y-26986452D01*
X133172335Y-26900206D01*
X133172328Y-26900202D01*
X133037482Y-26849908D01*
X133037483Y-26849908D01*
X132977883Y-26843501D01*
X132977881Y-26843500D01*
X132977873Y-26843500D01*
X132977864Y-26843500D01*
X131182129Y-26843500D01*
X131182123Y-26843501D01*
X131122516Y-26849908D01*
X130987671Y-26900202D01*
X130987664Y-26900206D01*
X130872455Y-26986452D01*
X130872452Y-26986455D01*
X130786206Y-27101664D01*
X130786202Y-27101671D01*
X130735908Y-27236517D01*
X130729501Y-27296116D01*
X130729501Y-27296123D01*
X130729500Y-27296135D01*
X130729500Y-29091870D01*
X130729501Y-29091876D01*
X130735908Y-29151483D01*
X130786202Y-29286328D01*
X130786206Y-29286335D01*
X130872452Y-29401544D01*
X130872455Y-29401547D01*
X130987664Y-29487793D01*
X130987671Y-29487797D01*
X131119081Y-29536810D01*
X131175015Y-29578681D01*
X131199432Y-29644145D01*
X131184580Y-29712418D01*
X131163430Y-29740673D01*
X131041503Y-29862600D01*
X130905965Y-30056169D01*
X130905964Y-30056171D01*
X130806098Y-30270335D01*
X130806094Y-30270344D01*
X130744938Y-30498586D01*
X130744936Y-30498596D01*
X130724341Y-30733999D01*
X130724341Y-30734000D01*
X126030500Y-30734000D01*
X126030500Y-23792500D01*
X126050185Y-23725461D01*
X126102989Y-23679706D01*
X126154500Y-23668500D01*
X159595500Y-23668500D01*
X159662539Y-23688185D01*
G37*
%TD.AperFunction*%
%TD*%
M02*
