%TF.GenerationSoftware,KiCad,Pcbnew,7.0.8-7.0.8~ubuntu22.04.1*%
%TF.CreationDate,2023-10-15T23:00:33+01:00*%
%TF.ProjectId,jfet-555-bypass,6a666574-2d35-4353-952d-627970617373,rev?*%
%TF.SameCoordinates,Original*%
%TF.FileFunction,Legend,Top*%
%TF.FilePolarity,Positive*%
%FSLAX46Y46*%
G04 Gerber Fmt 4.6, Leading zero omitted, Abs format (unit mm)*
G04 Created by KiCad (PCBNEW 7.0.8-7.0.8~ubuntu22.04.1) date 2023-10-15 23:00:33*
%MOMM*%
%LPD*%
G01*
G04 APERTURE LIST*
%ADD10C,0.200000*%
%ADD11C,0.150000*%
%ADD12C,0.120000*%
G04 APERTURE END LIST*
D10*
X131401863Y-23759219D02*
X130925673Y-23759219D01*
X130925673Y-23759219D02*
X130878054Y-24235409D01*
X130878054Y-24235409D02*
X130925673Y-24187790D01*
X130925673Y-24187790D02*
X131020911Y-24140171D01*
X131020911Y-24140171D02*
X131259006Y-24140171D01*
X131259006Y-24140171D02*
X131354244Y-24187790D01*
X131354244Y-24187790D02*
X131401863Y-24235409D01*
X131401863Y-24235409D02*
X131449482Y-24330647D01*
X131449482Y-24330647D02*
X131449482Y-24568742D01*
X131449482Y-24568742D02*
X131401863Y-24663980D01*
X131401863Y-24663980D02*
X131354244Y-24711600D01*
X131354244Y-24711600D02*
X131259006Y-24759219D01*
X131259006Y-24759219D02*
X131020911Y-24759219D01*
X131020911Y-24759219D02*
X130925673Y-24711600D01*
X130925673Y-24711600D02*
X130878054Y-24663980D01*
X132354244Y-23759219D02*
X131878054Y-23759219D01*
X131878054Y-23759219D02*
X131830435Y-24235409D01*
X131830435Y-24235409D02*
X131878054Y-24187790D01*
X131878054Y-24187790D02*
X131973292Y-24140171D01*
X131973292Y-24140171D02*
X132211387Y-24140171D01*
X132211387Y-24140171D02*
X132306625Y-24187790D01*
X132306625Y-24187790D02*
X132354244Y-24235409D01*
X132354244Y-24235409D02*
X132401863Y-24330647D01*
X132401863Y-24330647D02*
X132401863Y-24568742D01*
X132401863Y-24568742D02*
X132354244Y-24663980D01*
X132354244Y-24663980D02*
X132306625Y-24711600D01*
X132306625Y-24711600D02*
X132211387Y-24759219D01*
X132211387Y-24759219D02*
X131973292Y-24759219D01*
X131973292Y-24759219D02*
X131878054Y-24711600D01*
X131878054Y-24711600D02*
X131830435Y-24663980D01*
X133306625Y-23759219D02*
X132830435Y-23759219D01*
X132830435Y-23759219D02*
X132782816Y-24235409D01*
X132782816Y-24235409D02*
X132830435Y-24187790D01*
X132830435Y-24187790D02*
X132925673Y-24140171D01*
X132925673Y-24140171D02*
X133163768Y-24140171D01*
X133163768Y-24140171D02*
X133259006Y-24187790D01*
X133259006Y-24187790D02*
X133306625Y-24235409D01*
X133306625Y-24235409D02*
X133354244Y-24330647D01*
X133354244Y-24330647D02*
X133354244Y-24568742D01*
X133354244Y-24568742D02*
X133306625Y-24663980D01*
X133306625Y-24663980D02*
X133259006Y-24711600D01*
X133259006Y-24711600D02*
X133163768Y-24759219D01*
X133163768Y-24759219D02*
X132925673Y-24759219D01*
X132925673Y-24759219D02*
X132830435Y-24711600D01*
X132830435Y-24711600D02*
X132782816Y-24663980D01*
X134497101Y-23711600D02*
X133639959Y-24997314D01*
X135116149Y-23759219D02*
X135116149Y-24473504D01*
X135116149Y-24473504D02*
X135068530Y-24616361D01*
X135068530Y-24616361D02*
X134973292Y-24711600D01*
X134973292Y-24711600D02*
X134830435Y-24759219D01*
X134830435Y-24759219D02*
X134735197Y-24759219D01*
X135925673Y-24235409D02*
X135592340Y-24235409D01*
X135592340Y-24759219D02*
X135592340Y-23759219D01*
X135592340Y-23759219D02*
X136068530Y-23759219D01*
X136449483Y-24235409D02*
X136782816Y-24235409D01*
X136925673Y-24759219D02*
X136449483Y-24759219D01*
X136449483Y-24759219D02*
X136449483Y-23759219D01*
X136449483Y-23759219D02*
X136925673Y-23759219D01*
X137211388Y-23759219D02*
X137782816Y-23759219D01*
X137497102Y-24759219D02*
X137497102Y-23759219D01*
X138782817Y-24759219D02*
X139306626Y-24092552D01*
X138782817Y-24092552D02*
X139306626Y-24759219D01*
X139592341Y-23759219D02*
X140211388Y-23759219D01*
X140211388Y-23759219D02*
X139878055Y-24140171D01*
X139878055Y-24140171D02*
X140020912Y-24140171D01*
X140020912Y-24140171D02*
X140116150Y-24187790D01*
X140116150Y-24187790D02*
X140163769Y-24235409D01*
X140163769Y-24235409D02*
X140211388Y-24330647D01*
X140211388Y-24330647D02*
X140211388Y-24568742D01*
X140211388Y-24568742D02*
X140163769Y-24663980D01*
X140163769Y-24663980D02*
X140116150Y-24711600D01*
X140116150Y-24711600D02*
X140020912Y-24759219D01*
X140020912Y-24759219D02*
X139735198Y-24759219D01*
X139735198Y-24759219D02*
X139639960Y-24711600D01*
X139639960Y-24711600D02*
X139592341Y-24663980D01*
X141878055Y-24759219D02*
X141401865Y-24759219D01*
X141401865Y-24759219D02*
X141401865Y-23759219D01*
X142163770Y-24473504D02*
X142639960Y-24473504D01*
X142068532Y-24759219D02*
X142401865Y-23759219D01*
X142401865Y-23759219D02*
X142735198Y-24759219D01*
X142925675Y-23759219D02*
X143497103Y-23759219D01*
X143211389Y-24759219D02*
X143211389Y-23759219D01*
X144401865Y-24663980D02*
X144354246Y-24711600D01*
X144354246Y-24711600D02*
X144211389Y-24759219D01*
X144211389Y-24759219D02*
X144116151Y-24759219D01*
X144116151Y-24759219D02*
X143973294Y-24711600D01*
X143973294Y-24711600D02*
X143878056Y-24616361D01*
X143878056Y-24616361D02*
X143830437Y-24521123D01*
X143830437Y-24521123D02*
X143782818Y-24330647D01*
X143782818Y-24330647D02*
X143782818Y-24187790D01*
X143782818Y-24187790D02*
X143830437Y-23997314D01*
X143830437Y-23997314D02*
X143878056Y-23902076D01*
X143878056Y-23902076D02*
X143973294Y-23806838D01*
X143973294Y-23806838D02*
X144116151Y-23759219D01*
X144116151Y-23759219D02*
X144211389Y-23759219D01*
X144211389Y-23759219D02*
X144354246Y-23806838D01*
X144354246Y-23806838D02*
X144401865Y-23854457D01*
X144830437Y-24759219D02*
X144830437Y-23759219D01*
X144830437Y-24235409D02*
X145401865Y-24235409D01*
X145401865Y-24759219D02*
X145401865Y-23759219D01*
X147211389Y-24759219D02*
X146878056Y-24283028D01*
X146639961Y-24759219D02*
X146639961Y-23759219D01*
X146639961Y-23759219D02*
X147020913Y-23759219D01*
X147020913Y-23759219D02*
X147116151Y-23806838D01*
X147116151Y-23806838D02*
X147163770Y-23854457D01*
X147163770Y-23854457D02*
X147211389Y-23949695D01*
X147211389Y-23949695D02*
X147211389Y-24092552D01*
X147211389Y-24092552D02*
X147163770Y-24187790D01*
X147163770Y-24187790D02*
X147116151Y-24235409D01*
X147116151Y-24235409D02*
X147020913Y-24283028D01*
X147020913Y-24283028D02*
X146639961Y-24283028D01*
X147639961Y-24235409D02*
X147973294Y-24235409D01*
X148116151Y-24759219D02*
X147639961Y-24759219D01*
X147639961Y-24759219D02*
X147639961Y-23759219D01*
X147639961Y-23759219D02*
X148116151Y-23759219D01*
X148401866Y-23759219D02*
X148735199Y-24759219D01*
X148735199Y-24759219D02*
X149068532Y-23759219D01*
X149354247Y-24473504D02*
X149830437Y-24473504D01*
X149259009Y-24759219D02*
X149592342Y-23759219D01*
X149592342Y-23759219D02*
X149925675Y-24759219D01*
X151449485Y-24092552D02*
X151449485Y-24759219D01*
X151211390Y-23711600D02*
X150973295Y-24425885D01*
X150973295Y-24425885D02*
X151592342Y-24425885D01*
X152497104Y-24759219D02*
X151925676Y-24759219D01*
X152211390Y-24759219D02*
X152211390Y-23759219D01*
X152211390Y-23759219D02*
X152116152Y-23902076D01*
X152116152Y-23902076D02*
X152020914Y-23997314D01*
X152020914Y-23997314D02*
X151925676Y-24044933D01*
X153639961Y-23711600D02*
X152782819Y-24997314D01*
X153925676Y-23854457D02*
X153973295Y-23806838D01*
X153973295Y-23806838D02*
X154068533Y-23759219D01*
X154068533Y-23759219D02*
X154306628Y-23759219D01*
X154306628Y-23759219D02*
X154401866Y-23806838D01*
X154401866Y-23806838D02*
X154449485Y-23854457D01*
X154449485Y-23854457D02*
X154497104Y-23949695D01*
X154497104Y-23949695D02*
X154497104Y-24044933D01*
X154497104Y-24044933D02*
X154449485Y-24187790D01*
X154449485Y-24187790D02*
X153878057Y-24759219D01*
X153878057Y-24759219D02*
X154497104Y-24759219D01*
X154830438Y-23759219D02*
X155449485Y-23759219D01*
X155449485Y-23759219D02*
X155116152Y-24140171D01*
X155116152Y-24140171D02*
X155259009Y-24140171D01*
X155259009Y-24140171D02*
X155354247Y-24187790D01*
X155354247Y-24187790D02*
X155401866Y-24235409D01*
X155401866Y-24235409D02*
X155449485Y-24330647D01*
X155449485Y-24330647D02*
X155449485Y-24568742D01*
X155449485Y-24568742D02*
X155401866Y-24663980D01*
X155401866Y-24663980D02*
X155354247Y-24711600D01*
X155354247Y-24711600D02*
X155259009Y-24759219D01*
X155259009Y-24759219D02*
X154973295Y-24759219D01*
X154973295Y-24759219D02*
X154878057Y-24711600D01*
X154878057Y-24711600D02*
X154830438Y-24663980D01*
D11*
X131746666Y-33514819D02*
X131746666Y-34229104D01*
X131746666Y-34229104D02*
X131699047Y-34371961D01*
X131699047Y-34371961D02*
X131603809Y-34467200D01*
X131603809Y-34467200D02*
X131460952Y-34514819D01*
X131460952Y-34514819D02*
X131365714Y-34514819D01*
X132651428Y-33514819D02*
X132460952Y-33514819D01*
X132460952Y-33514819D02*
X132365714Y-33562438D01*
X132365714Y-33562438D02*
X132318095Y-33610057D01*
X132318095Y-33610057D02*
X132222857Y-33752914D01*
X132222857Y-33752914D02*
X132175238Y-33943390D01*
X132175238Y-33943390D02*
X132175238Y-34324342D01*
X132175238Y-34324342D02*
X132222857Y-34419580D01*
X132222857Y-34419580D02*
X132270476Y-34467200D01*
X132270476Y-34467200D02*
X132365714Y-34514819D01*
X132365714Y-34514819D02*
X132556190Y-34514819D01*
X132556190Y-34514819D02*
X132651428Y-34467200D01*
X132651428Y-34467200D02*
X132699047Y-34419580D01*
X132699047Y-34419580D02*
X132746666Y-34324342D01*
X132746666Y-34324342D02*
X132746666Y-34086247D01*
X132746666Y-34086247D02*
X132699047Y-33991009D01*
X132699047Y-33991009D02*
X132651428Y-33943390D01*
X132651428Y-33943390D02*
X132556190Y-33895771D01*
X132556190Y-33895771D02*
X132365714Y-33895771D01*
X132365714Y-33895771D02*
X132270476Y-33943390D01*
X132270476Y-33943390D02*
X132222857Y-33991009D01*
X132222857Y-33991009D02*
X132175238Y-34086247D01*
X126484286Y-37237200D02*
X126627143Y-37284819D01*
X126627143Y-37284819D02*
X126865238Y-37284819D01*
X126865238Y-37284819D02*
X126960476Y-37237200D01*
X126960476Y-37237200D02*
X127008095Y-37189580D01*
X127008095Y-37189580D02*
X127055714Y-37094342D01*
X127055714Y-37094342D02*
X127055714Y-36999104D01*
X127055714Y-36999104D02*
X127008095Y-36903866D01*
X127008095Y-36903866D02*
X126960476Y-36856247D01*
X126960476Y-36856247D02*
X126865238Y-36808628D01*
X126865238Y-36808628D02*
X126674762Y-36761009D01*
X126674762Y-36761009D02*
X126579524Y-36713390D01*
X126579524Y-36713390D02*
X126531905Y-36665771D01*
X126531905Y-36665771D02*
X126484286Y-36570533D01*
X126484286Y-36570533D02*
X126484286Y-36475295D01*
X126484286Y-36475295D02*
X126531905Y-36380057D01*
X126531905Y-36380057D02*
X126579524Y-36332438D01*
X126579524Y-36332438D02*
X126674762Y-36284819D01*
X126674762Y-36284819D02*
X126912857Y-36284819D01*
X126912857Y-36284819D02*
X127055714Y-36332438D01*
X127484286Y-37284819D02*
X127484286Y-36284819D01*
X127484286Y-36284819D02*
X128055714Y-37284819D01*
X128055714Y-37284819D02*
X128055714Y-36284819D01*
X128531905Y-37284819D02*
X128531905Y-36284819D01*
X128531905Y-36284819D02*
X128770000Y-36284819D01*
X128770000Y-36284819D02*
X128912857Y-36332438D01*
X128912857Y-36332438D02*
X129008095Y-36427676D01*
X129008095Y-36427676D02*
X129055714Y-36522914D01*
X129055714Y-36522914D02*
X129103333Y-36713390D01*
X129103333Y-36713390D02*
X129103333Y-36856247D01*
X129103333Y-36856247D02*
X129055714Y-37046723D01*
X129055714Y-37046723D02*
X129008095Y-37141961D01*
X129008095Y-37141961D02*
X128912857Y-37237200D01*
X128912857Y-37237200D02*
X128770000Y-37284819D01*
X128770000Y-37284819D02*
X128531905Y-37284819D01*
X129484286Y-36380057D02*
X129531905Y-36332438D01*
X129531905Y-36332438D02*
X129627143Y-36284819D01*
X129627143Y-36284819D02*
X129865238Y-36284819D01*
X129865238Y-36284819D02*
X129960476Y-36332438D01*
X129960476Y-36332438D02*
X130008095Y-36380057D01*
X130008095Y-36380057D02*
X130055714Y-36475295D01*
X130055714Y-36475295D02*
X130055714Y-36570533D01*
X130055714Y-36570533D02*
X130008095Y-36713390D01*
X130008095Y-36713390D02*
X129436667Y-37284819D01*
X129436667Y-37284819D02*
X130055714Y-37284819D01*
X127198571Y-39824819D02*
X126865238Y-39348628D01*
X126627143Y-39824819D02*
X126627143Y-38824819D01*
X126627143Y-38824819D02*
X127008095Y-38824819D01*
X127008095Y-38824819D02*
X127103333Y-38872438D01*
X127103333Y-38872438D02*
X127150952Y-38920057D01*
X127150952Y-38920057D02*
X127198571Y-39015295D01*
X127198571Y-39015295D02*
X127198571Y-39158152D01*
X127198571Y-39158152D02*
X127150952Y-39253390D01*
X127150952Y-39253390D02*
X127103333Y-39301009D01*
X127103333Y-39301009D02*
X127008095Y-39348628D01*
X127008095Y-39348628D02*
X126627143Y-39348628D01*
X127484286Y-38824819D02*
X128055714Y-38824819D01*
X127770000Y-39824819D02*
X127770000Y-38824819D01*
X128389048Y-39824819D02*
X128389048Y-38824819D01*
X128389048Y-38824819D02*
X128960476Y-39824819D01*
X128960476Y-39824819D02*
X128960476Y-38824819D01*
X129389048Y-38920057D02*
X129436667Y-38872438D01*
X129436667Y-38872438D02*
X129531905Y-38824819D01*
X129531905Y-38824819D02*
X129770000Y-38824819D01*
X129770000Y-38824819D02*
X129865238Y-38872438D01*
X129865238Y-38872438D02*
X129912857Y-38920057D01*
X129912857Y-38920057D02*
X129960476Y-39015295D01*
X129960476Y-39015295D02*
X129960476Y-39110533D01*
X129960476Y-39110533D02*
X129912857Y-39253390D01*
X129912857Y-39253390D02*
X129341429Y-39824819D01*
X129341429Y-39824819D02*
X129960476Y-39824819D01*
X126484286Y-28601200D02*
X126627143Y-28648819D01*
X126627143Y-28648819D02*
X126865238Y-28648819D01*
X126865238Y-28648819D02*
X126960476Y-28601200D01*
X126960476Y-28601200D02*
X127008095Y-28553580D01*
X127008095Y-28553580D02*
X127055714Y-28458342D01*
X127055714Y-28458342D02*
X127055714Y-28363104D01*
X127055714Y-28363104D02*
X127008095Y-28267866D01*
X127008095Y-28267866D02*
X126960476Y-28220247D01*
X126960476Y-28220247D02*
X126865238Y-28172628D01*
X126865238Y-28172628D02*
X126674762Y-28125009D01*
X126674762Y-28125009D02*
X126579524Y-28077390D01*
X126579524Y-28077390D02*
X126531905Y-28029771D01*
X126531905Y-28029771D02*
X126484286Y-27934533D01*
X126484286Y-27934533D02*
X126484286Y-27839295D01*
X126484286Y-27839295D02*
X126531905Y-27744057D01*
X126531905Y-27744057D02*
X126579524Y-27696438D01*
X126579524Y-27696438D02*
X126674762Y-27648819D01*
X126674762Y-27648819D02*
X126912857Y-27648819D01*
X126912857Y-27648819D02*
X127055714Y-27696438D01*
X127484286Y-28648819D02*
X127484286Y-27648819D01*
X127484286Y-27648819D02*
X128055714Y-28648819D01*
X128055714Y-28648819D02*
X128055714Y-27648819D01*
X128531905Y-28648819D02*
X128531905Y-27648819D01*
X128531905Y-27648819D02*
X128770000Y-27648819D01*
X128770000Y-27648819D02*
X128912857Y-27696438D01*
X128912857Y-27696438D02*
X129008095Y-27791676D01*
X129008095Y-27791676D02*
X129055714Y-27886914D01*
X129055714Y-27886914D02*
X129103333Y-28077390D01*
X129103333Y-28077390D02*
X129103333Y-28220247D01*
X129103333Y-28220247D02*
X129055714Y-28410723D01*
X129055714Y-28410723D02*
X129008095Y-28505961D01*
X129008095Y-28505961D02*
X128912857Y-28601200D01*
X128912857Y-28601200D02*
X128770000Y-28648819D01*
X128770000Y-28648819D02*
X128531905Y-28648819D01*
X130055714Y-28648819D02*
X129484286Y-28648819D01*
X129770000Y-28648819D02*
X129770000Y-27648819D01*
X129770000Y-27648819D02*
X129674762Y-27791676D01*
X129674762Y-27791676D02*
X129579524Y-27886914D01*
X129579524Y-27886914D02*
X129484286Y-27934533D01*
X127198571Y-31188819D02*
X126865238Y-30712628D01*
X126627143Y-31188819D02*
X126627143Y-30188819D01*
X126627143Y-30188819D02*
X127008095Y-30188819D01*
X127008095Y-30188819D02*
X127103333Y-30236438D01*
X127103333Y-30236438D02*
X127150952Y-30284057D01*
X127150952Y-30284057D02*
X127198571Y-30379295D01*
X127198571Y-30379295D02*
X127198571Y-30522152D01*
X127198571Y-30522152D02*
X127150952Y-30617390D01*
X127150952Y-30617390D02*
X127103333Y-30665009D01*
X127103333Y-30665009D02*
X127008095Y-30712628D01*
X127008095Y-30712628D02*
X126627143Y-30712628D01*
X127484286Y-30188819D02*
X128055714Y-30188819D01*
X127770000Y-31188819D02*
X127770000Y-30188819D01*
X128389048Y-31188819D02*
X128389048Y-30188819D01*
X128389048Y-30188819D02*
X128960476Y-31188819D01*
X128960476Y-31188819D02*
X128960476Y-30188819D01*
X129960476Y-31188819D02*
X129389048Y-31188819D01*
X129674762Y-31188819D02*
X129674762Y-30188819D01*
X129674762Y-30188819D02*
X129579524Y-30331676D01*
X129579524Y-30331676D02*
X129484286Y-30426914D01*
X129484286Y-30426914D02*
X129389048Y-30474533D01*
X155194095Y-34760819D02*
X155194095Y-35570342D01*
X155194095Y-35570342D02*
X155241714Y-35665580D01*
X155241714Y-35665580D02*
X155289333Y-35713200D01*
X155289333Y-35713200D02*
X155384571Y-35760819D01*
X155384571Y-35760819D02*
X155575047Y-35760819D01*
X155575047Y-35760819D02*
X155670285Y-35713200D01*
X155670285Y-35713200D02*
X155717904Y-35665580D01*
X155717904Y-35665580D02*
X155765523Y-35570342D01*
X155765523Y-35570342D02*
X155765523Y-34760819D01*
X156765523Y-35760819D02*
X156194095Y-35760819D01*
X156479809Y-35760819D02*
X156479809Y-34760819D01*
X156479809Y-34760819D02*
X156384571Y-34903676D01*
X156384571Y-34903676D02*
X156289333Y-34998914D01*
X156289333Y-34998914D02*
X156194095Y-35046533D01*
X135458833Y-49823580D02*
X135411214Y-49871200D01*
X135411214Y-49871200D02*
X135268357Y-49918819D01*
X135268357Y-49918819D02*
X135173119Y-49918819D01*
X135173119Y-49918819D02*
X135030262Y-49871200D01*
X135030262Y-49871200D02*
X134935024Y-49775961D01*
X134935024Y-49775961D02*
X134887405Y-49680723D01*
X134887405Y-49680723D02*
X134839786Y-49490247D01*
X134839786Y-49490247D02*
X134839786Y-49347390D01*
X134839786Y-49347390D02*
X134887405Y-49156914D01*
X134887405Y-49156914D02*
X134935024Y-49061676D01*
X134935024Y-49061676D02*
X135030262Y-48966438D01*
X135030262Y-48966438D02*
X135173119Y-48918819D01*
X135173119Y-48918819D02*
X135268357Y-48918819D01*
X135268357Y-48918819D02*
X135411214Y-48966438D01*
X135411214Y-48966438D02*
X135458833Y-49014057D01*
X136030262Y-49347390D02*
X135935024Y-49299771D01*
X135935024Y-49299771D02*
X135887405Y-49252152D01*
X135887405Y-49252152D02*
X135839786Y-49156914D01*
X135839786Y-49156914D02*
X135839786Y-49109295D01*
X135839786Y-49109295D02*
X135887405Y-49014057D01*
X135887405Y-49014057D02*
X135935024Y-48966438D01*
X135935024Y-48966438D02*
X136030262Y-48918819D01*
X136030262Y-48918819D02*
X136220738Y-48918819D01*
X136220738Y-48918819D02*
X136315976Y-48966438D01*
X136315976Y-48966438D02*
X136363595Y-49014057D01*
X136363595Y-49014057D02*
X136411214Y-49109295D01*
X136411214Y-49109295D02*
X136411214Y-49156914D01*
X136411214Y-49156914D02*
X136363595Y-49252152D01*
X136363595Y-49252152D02*
X136315976Y-49299771D01*
X136315976Y-49299771D02*
X136220738Y-49347390D01*
X136220738Y-49347390D02*
X136030262Y-49347390D01*
X136030262Y-49347390D02*
X135935024Y-49395009D01*
X135935024Y-49395009D02*
X135887405Y-49442628D01*
X135887405Y-49442628D02*
X135839786Y-49537866D01*
X135839786Y-49537866D02*
X135839786Y-49728342D01*
X135839786Y-49728342D02*
X135887405Y-49823580D01*
X135887405Y-49823580D02*
X135935024Y-49871200D01*
X135935024Y-49871200D02*
X136030262Y-49918819D01*
X136030262Y-49918819D02*
X136220738Y-49918819D01*
X136220738Y-49918819D02*
X136315976Y-49871200D01*
X136315976Y-49871200D02*
X136363595Y-49823580D01*
X136363595Y-49823580D02*
X136411214Y-49728342D01*
X136411214Y-49728342D02*
X136411214Y-49537866D01*
X136411214Y-49537866D02*
X136363595Y-49442628D01*
X136363595Y-49442628D02*
X136315976Y-49395009D01*
X136315976Y-49395009D02*
X136220738Y-49347390D01*
X129405142Y-47444819D02*
X128928952Y-47444819D01*
X128928952Y-47444819D02*
X128928952Y-46444819D01*
X129738476Y-46921009D02*
X130071809Y-46921009D01*
X130214666Y-47444819D02*
X129738476Y-47444819D01*
X129738476Y-47444819D02*
X129738476Y-46444819D01*
X129738476Y-46444819D02*
X130214666Y-46444819D01*
X130643238Y-47444819D02*
X130643238Y-46444819D01*
X130643238Y-46444819D02*
X130881333Y-46444819D01*
X130881333Y-46444819D02*
X131024190Y-46492438D01*
X131024190Y-46492438D02*
X131119428Y-46587676D01*
X131119428Y-46587676D02*
X131167047Y-46682914D01*
X131167047Y-46682914D02*
X131214666Y-46873390D01*
X131214666Y-46873390D02*
X131214666Y-47016247D01*
X131214666Y-47016247D02*
X131167047Y-47206723D01*
X131167047Y-47206723D02*
X131119428Y-47301961D01*
X131119428Y-47301961D02*
X131024190Y-47397200D01*
X131024190Y-47397200D02*
X130881333Y-47444819D01*
X130881333Y-47444819D02*
X130643238Y-47444819D01*
X126992095Y-49979819D02*
X126992095Y-48979819D01*
X127563523Y-49979819D02*
X127134952Y-49408390D01*
X127563523Y-48979819D02*
X126992095Y-49551247D01*
X127015905Y-52239104D02*
X127492095Y-52239104D01*
X126920667Y-52524819D02*
X127254000Y-51524819D01*
X127254000Y-51524819D02*
X127587333Y-52524819D01*
X150071666Y-54557009D02*
X149738333Y-54557009D01*
X149738333Y-55080819D02*
X149738333Y-54080819D01*
X149738333Y-54080819D02*
X150214523Y-54080819D01*
X150785952Y-54080819D02*
X150976428Y-54080819D01*
X150976428Y-54080819D02*
X151071666Y-54128438D01*
X151071666Y-54128438D02*
X151166904Y-54223676D01*
X151166904Y-54223676D02*
X151214523Y-54414152D01*
X151214523Y-54414152D02*
X151214523Y-54747485D01*
X151214523Y-54747485D02*
X151166904Y-54937961D01*
X151166904Y-54937961D02*
X151071666Y-55033200D01*
X151071666Y-55033200D02*
X150976428Y-55080819D01*
X150976428Y-55080819D02*
X150785952Y-55080819D01*
X150785952Y-55080819D02*
X150690714Y-55033200D01*
X150690714Y-55033200D02*
X150595476Y-54937961D01*
X150595476Y-54937961D02*
X150547857Y-54747485D01*
X150547857Y-54747485D02*
X150547857Y-54414152D01*
X150547857Y-54414152D02*
X150595476Y-54223676D01*
X150595476Y-54223676D02*
X150690714Y-54128438D01*
X150690714Y-54128438D02*
X150785952Y-54080819D01*
X151833571Y-54080819D02*
X152024047Y-54080819D01*
X152024047Y-54080819D02*
X152119285Y-54128438D01*
X152119285Y-54128438D02*
X152214523Y-54223676D01*
X152214523Y-54223676D02*
X152262142Y-54414152D01*
X152262142Y-54414152D02*
X152262142Y-54747485D01*
X152262142Y-54747485D02*
X152214523Y-54937961D01*
X152214523Y-54937961D02*
X152119285Y-55033200D01*
X152119285Y-55033200D02*
X152024047Y-55080819D01*
X152024047Y-55080819D02*
X151833571Y-55080819D01*
X151833571Y-55080819D02*
X151738333Y-55033200D01*
X151738333Y-55033200D02*
X151643095Y-54937961D01*
X151643095Y-54937961D02*
X151595476Y-54747485D01*
X151595476Y-54747485D02*
X151595476Y-54414152D01*
X151595476Y-54414152D02*
X151643095Y-54223676D01*
X151643095Y-54223676D02*
X151738333Y-54128438D01*
X151738333Y-54128438D02*
X151833571Y-54080819D01*
X152547857Y-54080819D02*
X153119285Y-54080819D01*
X152833571Y-55080819D02*
X152833571Y-54080819D01*
X153405000Y-55033200D02*
X153547857Y-55080819D01*
X153547857Y-55080819D02*
X153785952Y-55080819D01*
X153785952Y-55080819D02*
X153881190Y-55033200D01*
X153881190Y-55033200D02*
X153928809Y-54985580D01*
X153928809Y-54985580D02*
X153976428Y-54890342D01*
X153976428Y-54890342D02*
X153976428Y-54795104D01*
X153976428Y-54795104D02*
X153928809Y-54699866D01*
X153928809Y-54699866D02*
X153881190Y-54652247D01*
X153881190Y-54652247D02*
X153785952Y-54604628D01*
X153785952Y-54604628D02*
X153595476Y-54557009D01*
X153595476Y-54557009D02*
X153500238Y-54509390D01*
X153500238Y-54509390D02*
X153452619Y-54461771D01*
X153452619Y-54461771D02*
X153405000Y-54366533D01*
X153405000Y-54366533D02*
X153405000Y-54271295D01*
X153405000Y-54271295D02*
X153452619Y-54176057D01*
X153452619Y-54176057D02*
X153500238Y-54128438D01*
X153500238Y-54128438D02*
X153595476Y-54080819D01*
X153595476Y-54080819D02*
X153833571Y-54080819D01*
X153833571Y-54080819D02*
X153976428Y-54128438D01*
X154309762Y-54080819D02*
X154547857Y-55080819D01*
X154547857Y-55080819D02*
X154738333Y-54366533D01*
X154738333Y-54366533D02*
X154928809Y-55080819D01*
X154928809Y-55080819D02*
X155166905Y-54080819D01*
X147534333Y-53953580D02*
X147486714Y-54001200D01*
X147486714Y-54001200D02*
X147343857Y-54048819D01*
X147343857Y-54048819D02*
X147248619Y-54048819D01*
X147248619Y-54048819D02*
X147105762Y-54001200D01*
X147105762Y-54001200D02*
X147010524Y-53905961D01*
X147010524Y-53905961D02*
X146962905Y-53810723D01*
X146962905Y-53810723D02*
X146915286Y-53620247D01*
X146915286Y-53620247D02*
X146915286Y-53477390D01*
X146915286Y-53477390D02*
X146962905Y-53286914D01*
X146962905Y-53286914D02*
X147010524Y-53191676D01*
X147010524Y-53191676D02*
X147105762Y-53096438D01*
X147105762Y-53096438D02*
X147248619Y-53048819D01*
X147248619Y-53048819D02*
X147343857Y-53048819D01*
X147343857Y-53048819D02*
X147486714Y-53096438D01*
X147486714Y-53096438D02*
X147534333Y-53144057D01*
X148010524Y-54048819D02*
X148201000Y-54048819D01*
X148201000Y-54048819D02*
X148296238Y-54001200D01*
X148296238Y-54001200D02*
X148343857Y-53953580D01*
X148343857Y-53953580D02*
X148439095Y-53810723D01*
X148439095Y-53810723D02*
X148486714Y-53620247D01*
X148486714Y-53620247D02*
X148486714Y-53239295D01*
X148486714Y-53239295D02*
X148439095Y-53144057D01*
X148439095Y-53144057D02*
X148391476Y-53096438D01*
X148391476Y-53096438D02*
X148296238Y-53048819D01*
X148296238Y-53048819D02*
X148105762Y-53048819D01*
X148105762Y-53048819D02*
X148010524Y-53096438D01*
X148010524Y-53096438D02*
X147962905Y-53144057D01*
X147962905Y-53144057D02*
X147915286Y-53239295D01*
X147915286Y-53239295D02*
X147915286Y-53477390D01*
X147915286Y-53477390D02*
X147962905Y-53572628D01*
X147962905Y-53572628D02*
X148010524Y-53620247D01*
X148010524Y-53620247D02*
X148105762Y-53667866D01*
X148105762Y-53667866D02*
X148296238Y-53667866D01*
X148296238Y-53667866D02*
X148391476Y-53620247D01*
X148391476Y-53620247D02*
X148439095Y-53572628D01*
X148439095Y-53572628D02*
X148486714Y-53477390D01*
X147534333Y-32871580D02*
X147486714Y-32919200D01*
X147486714Y-32919200D02*
X147343857Y-32966819D01*
X147343857Y-32966819D02*
X147248619Y-32966819D01*
X147248619Y-32966819D02*
X147105762Y-32919200D01*
X147105762Y-32919200D02*
X147010524Y-32823961D01*
X147010524Y-32823961D02*
X146962905Y-32728723D01*
X146962905Y-32728723D02*
X146915286Y-32538247D01*
X146915286Y-32538247D02*
X146915286Y-32395390D01*
X146915286Y-32395390D02*
X146962905Y-32204914D01*
X146962905Y-32204914D02*
X147010524Y-32109676D01*
X147010524Y-32109676D02*
X147105762Y-32014438D01*
X147105762Y-32014438D02*
X147248619Y-31966819D01*
X147248619Y-31966819D02*
X147343857Y-31966819D01*
X147343857Y-31966819D02*
X147486714Y-32014438D01*
X147486714Y-32014438D02*
X147534333Y-32062057D01*
X148391476Y-31966819D02*
X148201000Y-31966819D01*
X148201000Y-31966819D02*
X148105762Y-32014438D01*
X148105762Y-32014438D02*
X148058143Y-32062057D01*
X148058143Y-32062057D02*
X147962905Y-32204914D01*
X147962905Y-32204914D02*
X147915286Y-32395390D01*
X147915286Y-32395390D02*
X147915286Y-32776342D01*
X147915286Y-32776342D02*
X147962905Y-32871580D01*
X147962905Y-32871580D02*
X148010524Y-32919200D01*
X148010524Y-32919200D02*
X148105762Y-32966819D01*
X148105762Y-32966819D02*
X148296238Y-32966819D01*
X148296238Y-32966819D02*
X148391476Y-32919200D01*
X148391476Y-32919200D02*
X148439095Y-32871580D01*
X148439095Y-32871580D02*
X148486714Y-32776342D01*
X148486714Y-32776342D02*
X148486714Y-32538247D01*
X148486714Y-32538247D02*
X148439095Y-32443009D01*
X148439095Y-32443009D02*
X148391476Y-32395390D01*
X148391476Y-32395390D02*
X148296238Y-32347771D01*
X148296238Y-32347771D02*
X148105762Y-32347771D01*
X148105762Y-32347771D02*
X148010524Y-32395390D01*
X148010524Y-32395390D02*
X147962905Y-32443009D01*
X147962905Y-32443009D02*
X147915286Y-32538247D01*
X158601580Y-48669857D02*
X158649200Y-48717476D01*
X158649200Y-48717476D02*
X158696819Y-48860333D01*
X158696819Y-48860333D02*
X158696819Y-48955571D01*
X158696819Y-48955571D02*
X158649200Y-49098428D01*
X158649200Y-49098428D02*
X158553961Y-49193666D01*
X158553961Y-49193666D02*
X158458723Y-49241285D01*
X158458723Y-49241285D02*
X158268247Y-49288904D01*
X158268247Y-49288904D02*
X158125390Y-49288904D01*
X158125390Y-49288904D02*
X157934914Y-49241285D01*
X157934914Y-49241285D02*
X157839676Y-49193666D01*
X157839676Y-49193666D02*
X157744438Y-49098428D01*
X157744438Y-49098428D02*
X157696819Y-48955571D01*
X157696819Y-48955571D02*
X157696819Y-48860333D01*
X157696819Y-48860333D02*
X157744438Y-48717476D01*
X157744438Y-48717476D02*
X157792057Y-48669857D01*
X158696819Y-47717476D02*
X158696819Y-48288904D01*
X158696819Y-48003190D02*
X157696819Y-48003190D01*
X157696819Y-48003190D02*
X157839676Y-48098428D01*
X157839676Y-48098428D02*
X157934914Y-48193666D01*
X157934914Y-48193666D02*
X157982533Y-48288904D01*
X158030152Y-46860333D02*
X158696819Y-46860333D01*
X157649200Y-47098428D02*
X158363485Y-47336523D01*
X158363485Y-47336523D02*
X158363485Y-46717476D01*
X158696819Y-36763666D02*
X158220628Y-37096999D01*
X158696819Y-37335094D02*
X157696819Y-37335094D01*
X157696819Y-37335094D02*
X157696819Y-36954142D01*
X157696819Y-36954142D02*
X157744438Y-36858904D01*
X157744438Y-36858904D02*
X157792057Y-36811285D01*
X157792057Y-36811285D02*
X157887295Y-36763666D01*
X157887295Y-36763666D02*
X158030152Y-36763666D01*
X158030152Y-36763666D02*
X158125390Y-36811285D01*
X158125390Y-36811285D02*
X158173009Y-36858904D01*
X158173009Y-36858904D02*
X158220628Y-36954142D01*
X158220628Y-36954142D02*
X158220628Y-37335094D01*
X158696819Y-35811285D02*
X158696819Y-36382713D01*
X158696819Y-36096999D02*
X157696819Y-36096999D01*
X157696819Y-36096999D02*
X157839676Y-36192237D01*
X157839676Y-36192237D02*
X157934914Y-36287475D01*
X157934914Y-36287475D02*
X157982533Y-36382713D01*
X147484261Y-30014057D02*
X147389023Y-29966438D01*
X147389023Y-29966438D02*
X147293785Y-29871200D01*
X147293785Y-29871200D02*
X147150928Y-29728342D01*
X147150928Y-29728342D02*
X147055690Y-29680723D01*
X147055690Y-29680723D02*
X146960452Y-29680723D01*
X147008071Y-29918819D02*
X146912833Y-29871200D01*
X146912833Y-29871200D02*
X146817595Y-29775961D01*
X146817595Y-29775961D02*
X146769976Y-29585485D01*
X146769976Y-29585485D02*
X146769976Y-29252152D01*
X146769976Y-29252152D02*
X146817595Y-29061676D01*
X146817595Y-29061676D02*
X146912833Y-28966438D01*
X146912833Y-28966438D02*
X147008071Y-28918819D01*
X147008071Y-28918819D02*
X147198547Y-28918819D01*
X147198547Y-28918819D02*
X147293785Y-28966438D01*
X147293785Y-28966438D02*
X147389023Y-29061676D01*
X147389023Y-29061676D02*
X147436642Y-29252152D01*
X147436642Y-29252152D02*
X147436642Y-29585485D01*
X147436642Y-29585485D02*
X147389023Y-29775961D01*
X147389023Y-29775961D02*
X147293785Y-29871200D01*
X147293785Y-29871200D02*
X147198547Y-29918819D01*
X147198547Y-29918819D02*
X147008071Y-29918819D01*
X147817595Y-29014057D02*
X147865214Y-28966438D01*
X147865214Y-28966438D02*
X147960452Y-28918819D01*
X147960452Y-28918819D02*
X148198547Y-28918819D01*
X148198547Y-28918819D02*
X148293785Y-28966438D01*
X148293785Y-28966438D02*
X148341404Y-29014057D01*
X148341404Y-29014057D02*
X148389023Y-29109295D01*
X148389023Y-29109295D02*
X148389023Y-29204533D01*
X148389023Y-29204533D02*
X148341404Y-29347390D01*
X148341404Y-29347390D02*
X147769976Y-29918819D01*
X147769976Y-29918819D02*
X148389023Y-29918819D01*
X135458333Y-39795580D02*
X135410714Y-39843200D01*
X135410714Y-39843200D02*
X135267857Y-39890819D01*
X135267857Y-39890819D02*
X135172619Y-39890819D01*
X135172619Y-39890819D02*
X135029762Y-39843200D01*
X135029762Y-39843200D02*
X134934524Y-39747961D01*
X134934524Y-39747961D02*
X134886905Y-39652723D01*
X134886905Y-39652723D02*
X134839286Y-39462247D01*
X134839286Y-39462247D02*
X134839286Y-39319390D01*
X134839286Y-39319390D02*
X134886905Y-39128914D01*
X134886905Y-39128914D02*
X134934524Y-39033676D01*
X134934524Y-39033676D02*
X135029762Y-38938438D01*
X135029762Y-38938438D02*
X135172619Y-38890819D01*
X135172619Y-38890819D02*
X135267857Y-38890819D01*
X135267857Y-38890819D02*
X135410714Y-38938438D01*
X135410714Y-38938438D02*
X135458333Y-38986057D01*
X135791667Y-38890819D02*
X136410714Y-38890819D01*
X136410714Y-38890819D02*
X136077381Y-39271771D01*
X136077381Y-39271771D02*
X136220238Y-39271771D01*
X136220238Y-39271771D02*
X136315476Y-39319390D01*
X136315476Y-39319390D02*
X136363095Y-39367009D01*
X136363095Y-39367009D02*
X136410714Y-39462247D01*
X136410714Y-39462247D02*
X136410714Y-39700342D01*
X136410714Y-39700342D02*
X136363095Y-39795580D01*
X136363095Y-39795580D02*
X136315476Y-39843200D01*
X136315476Y-39843200D02*
X136220238Y-39890819D01*
X136220238Y-39890819D02*
X135934524Y-39890819D01*
X135934524Y-39890819D02*
X135839286Y-39843200D01*
X135839286Y-39843200D02*
X135791667Y-39795580D01*
X146581905Y-26616819D02*
X146581905Y-25616819D01*
X146581905Y-25616819D02*
X146820000Y-25616819D01*
X146820000Y-25616819D02*
X146962857Y-25664438D01*
X146962857Y-25664438D02*
X147058095Y-25759676D01*
X147058095Y-25759676D02*
X147105714Y-25854914D01*
X147105714Y-25854914D02*
X147153333Y-26045390D01*
X147153333Y-26045390D02*
X147153333Y-26188247D01*
X147153333Y-26188247D02*
X147105714Y-26378723D01*
X147105714Y-26378723D02*
X147058095Y-26473961D01*
X147058095Y-26473961D02*
X146962857Y-26569200D01*
X146962857Y-26569200D02*
X146820000Y-26616819D01*
X146820000Y-26616819D02*
X146581905Y-26616819D01*
X147534286Y-25712057D02*
X147581905Y-25664438D01*
X147581905Y-25664438D02*
X147677143Y-25616819D01*
X147677143Y-25616819D02*
X147915238Y-25616819D01*
X147915238Y-25616819D02*
X148010476Y-25664438D01*
X148010476Y-25664438D02*
X148058095Y-25712057D01*
X148058095Y-25712057D02*
X148105714Y-25807295D01*
X148105714Y-25807295D02*
X148105714Y-25902533D01*
X148105714Y-25902533D02*
X148058095Y-26045390D01*
X148058095Y-26045390D02*
X147486667Y-26616819D01*
X147486667Y-26616819D02*
X148105714Y-26616819D01*
X135226333Y-30839580D02*
X135178714Y-30887200D01*
X135178714Y-30887200D02*
X135035857Y-30934819D01*
X135035857Y-30934819D02*
X134940619Y-30934819D01*
X134940619Y-30934819D02*
X134797762Y-30887200D01*
X134797762Y-30887200D02*
X134702524Y-30791961D01*
X134702524Y-30791961D02*
X134654905Y-30696723D01*
X134654905Y-30696723D02*
X134607286Y-30506247D01*
X134607286Y-30506247D02*
X134607286Y-30363390D01*
X134607286Y-30363390D02*
X134654905Y-30172914D01*
X134654905Y-30172914D02*
X134702524Y-30077676D01*
X134702524Y-30077676D02*
X134797762Y-29982438D01*
X134797762Y-29982438D02*
X134940619Y-29934819D01*
X134940619Y-29934819D02*
X135035857Y-29934819D01*
X135035857Y-29934819D02*
X135178714Y-29982438D01*
X135178714Y-29982438D02*
X135226333Y-30030057D01*
X135559667Y-29934819D02*
X136226333Y-29934819D01*
X136226333Y-29934819D02*
X135797762Y-30934819D01*
X135458333Y-41827580D02*
X135410714Y-41875200D01*
X135410714Y-41875200D02*
X135267857Y-41922819D01*
X135267857Y-41922819D02*
X135172619Y-41922819D01*
X135172619Y-41922819D02*
X135029762Y-41875200D01*
X135029762Y-41875200D02*
X134934524Y-41779961D01*
X134934524Y-41779961D02*
X134886905Y-41684723D01*
X134886905Y-41684723D02*
X134839286Y-41494247D01*
X134839286Y-41494247D02*
X134839286Y-41351390D01*
X134839286Y-41351390D02*
X134886905Y-41160914D01*
X134886905Y-41160914D02*
X134934524Y-41065676D01*
X134934524Y-41065676D02*
X135029762Y-40970438D01*
X135029762Y-40970438D02*
X135172619Y-40922819D01*
X135172619Y-40922819D02*
X135267857Y-40922819D01*
X135267857Y-40922819D02*
X135410714Y-40970438D01*
X135410714Y-40970438D02*
X135458333Y-41018057D01*
X136315476Y-41256152D02*
X136315476Y-41922819D01*
X136077381Y-40875200D02*
X135839286Y-41589485D01*
X135839286Y-41589485D02*
X136458333Y-41589485D01*
X135215333Y-26616819D02*
X134882000Y-26140628D01*
X134643905Y-26616819D02*
X134643905Y-25616819D01*
X134643905Y-25616819D02*
X135024857Y-25616819D01*
X135024857Y-25616819D02*
X135120095Y-25664438D01*
X135120095Y-25664438D02*
X135167714Y-25712057D01*
X135167714Y-25712057D02*
X135215333Y-25807295D01*
X135215333Y-25807295D02*
X135215333Y-25950152D01*
X135215333Y-25950152D02*
X135167714Y-26045390D01*
X135167714Y-26045390D02*
X135120095Y-26093009D01*
X135120095Y-26093009D02*
X135024857Y-26140628D01*
X135024857Y-26140628D02*
X134643905Y-26140628D01*
X135786762Y-26045390D02*
X135691524Y-25997771D01*
X135691524Y-25997771D02*
X135643905Y-25950152D01*
X135643905Y-25950152D02*
X135596286Y-25854914D01*
X135596286Y-25854914D02*
X135596286Y-25807295D01*
X135596286Y-25807295D02*
X135643905Y-25712057D01*
X135643905Y-25712057D02*
X135691524Y-25664438D01*
X135691524Y-25664438D02*
X135786762Y-25616819D01*
X135786762Y-25616819D02*
X135977238Y-25616819D01*
X135977238Y-25616819D02*
X136072476Y-25664438D01*
X136072476Y-25664438D02*
X136120095Y-25712057D01*
X136120095Y-25712057D02*
X136167714Y-25807295D01*
X136167714Y-25807295D02*
X136167714Y-25854914D01*
X136167714Y-25854914D02*
X136120095Y-25950152D01*
X136120095Y-25950152D02*
X136072476Y-25997771D01*
X136072476Y-25997771D02*
X135977238Y-26045390D01*
X135977238Y-26045390D02*
X135786762Y-26045390D01*
X135786762Y-26045390D02*
X135691524Y-26093009D01*
X135691524Y-26093009D02*
X135643905Y-26140628D01*
X135643905Y-26140628D02*
X135596286Y-26235866D01*
X135596286Y-26235866D02*
X135596286Y-26426342D01*
X135596286Y-26426342D02*
X135643905Y-26521580D01*
X135643905Y-26521580D02*
X135691524Y-26569200D01*
X135691524Y-26569200D02*
X135786762Y-26616819D01*
X135786762Y-26616819D02*
X135977238Y-26616819D01*
X135977238Y-26616819D02*
X136072476Y-26569200D01*
X136072476Y-26569200D02*
X136120095Y-26521580D01*
X136120095Y-26521580D02*
X136167714Y-26426342D01*
X136167714Y-26426342D02*
X136167714Y-26235866D01*
X136167714Y-26235866D02*
X136120095Y-26140628D01*
X136120095Y-26140628D02*
X136072476Y-26093009D01*
X136072476Y-26093009D02*
X135977238Y-26045390D01*
X147600261Y-51096057D02*
X147505023Y-51048438D01*
X147505023Y-51048438D02*
X147409785Y-50953200D01*
X147409785Y-50953200D02*
X147266928Y-50810342D01*
X147266928Y-50810342D02*
X147171690Y-50762723D01*
X147171690Y-50762723D02*
X147076452Y-50762723D01*
X147124071Y-51000819D02*
X147028833Y-50953200D01*
X147028833Y-50953200D02*
X146933595Y-50857961D01*
X146933595Y-50857961D02*
X146885976Y-50667485D01*
X146885976Y-50667485D02*
X146885976Y-50334152D01*
X146885976Y-50334152D02*
X146933595Y-50143676D01*
X146933595Y-50143676D02*
X147028833Y-50048438D01*
X147028833Y-50048438D02*
X147124071Y-50000819D01*
X147124071Y-50000819D02*
X147314547Y-50000819D01*
X147314547Y-50000819D02*
X147409785Y-50048438D01*
X147409785Y-50048438D02*
X147505023Y-50143676D01*
X147505023Y-50143676D02*
X147552642Y-50334152D01*
X147552642Y-50334152D02*
X147552642Y-50667485D01*
X147552642Y-50667485D02*
X147505023Y-50857961D01*
X147505023Y-50857961D02*
X147409785Y-50953200D01*
X147409785Y-50953200D02*
X147314547Y-51000819D01*
X147314547Y-51000819D02*
X147124071Y-51000819D01*
X147885976Y-50000819D02*
X148505023Y-50000819D01*
X148505023Y-50000819D02*
X148171690Y-50381771D01*
X148171690Y-50381771D02*
X148314547Y-50381771D01*
X148314547Y-50381771D02*
X148409785Y-50429390D01*
X148409785Y-50429390D02*
X148457404Y-50477009D01*
X148457404Y-50477009D02*
X148505023Y-50572247D01*
X148505023Y-50572247D02*
X148505023Y-50810342D01*
X148505023Y-50810342D02*
X148457404Y-50905580D01*
X148457404Y-50905580D02*
X148409785Y-50953200D01*
X148409785Y-50953200D02*
X148314547Y-51000819D01*
X148314547Y-51000819D02*
X148028833Y-51000819D01*
X148028833Y-51000819D02*
X147933595Y-50953200D01*
X147933595Y-50953200D02*
X147885976Y-50905580D01*
X150314819Y-48939666D02*
X149838628Y-49272999D01*
X150314819Y-49511094D02*
X149314819Y-49511094D01*
X149314819Y-49511094D02*
X149314819Y-49130142D01*
X149314819Y-49130142D02*
X149362438Y-49034904D01*
X149362438Y-49034904D02*
X149410057Y-48987285D01*
X149410057Y-48987285D02*
X149505295Y-48939666D01*
X149505295Y-48939666D02*
X149648152Y-48939666D01*
X149648152Y-48939666D02*
X149743390Y-48987285D01*
X149743390Y-48987285D02*
X149791009Y-49034904D01*
X149791009Y-49034904D02*
X149838628Y-49130142D01*
X149838628Y-49130142D02*
X149838628Y-49511094D01*
X149410057Y-48558713D02*
X149362438Y-48511094D01*
X149362438Y-48511094D02*
X149314819Y-48415856D01*
X149314819Y-48415856D02*
X149314819Y-48177761D01*
X149314819Y-48177761D02*
X149362438Y-48082523D01*
X149362438Y-48082523D02*
X149410057Y-48034904D01*
X149410057Y-48034904D02*
X149505295Y-47987285D01*
X149505295Y-47987285D02*
X149600533Y-47987285D01*
X149600533Y-47987285D02*
X149743390Y-48034904D01*
X149743390Y-48034904D02*
X150314819Y-48606332D01*
X150314819Y-48606332D02*
X150314819Y-47987285D01*
X135448333Y-53982819D02*
X135115000Y-53506628D01*
X134876905Y-53982819D02*
X134876905Y-52982819D01*
X134876905Y-52982819D02*
X135257857Y-52982819D01*
X135257857Y-52982819D02*
X135353095Y-53030438D01*
X135353095Y-53030438D02*
X135400714Y-53078057D01*
X135400714Y-53078057D02*
X135448333Y-53173295D01*
X135448333Y-53173295D02*
X135448333Y-53316152D01*
X135448333Y-53316152D02*
X135400714Y-53411390D01*
X135400714Y-53411390D02*
X135353095Y-53459009D01*
X135353095Y-53459009D02*
X135257857Y-53506628D01*
X135257857Y-53506628D02*
X134876905Y-53506628D01*
X135924524Y-53982819D02*
X136115000Y-53982819D01*
X136115000Y-53982819D02*
X136210238Y-53935200D01*
X136210238Y-53935200D02*
X136257857Y-53887580D01*
X136257857Y-53887580D02*
X136353095Y-53744723D01*
X136353095Y-53744723D02*
X136400714Y-53554247D01*
X136400714Y-53554247D02*
X136400714Y-53173295D01*
X136400714Y-53173295D02*
X136353095Y-53078057D01*
X136353095Y-53078057D02*
X136305476Y-53030438D01*
X136305476Y-53030438D02*
X136210238Y-52982819D01*
X136210238Y-52982819D02*
X136019762Y-52982819D01*
X136019762Y-52982819D02*
X135924524Y-53030438D01*
X135924524Y-53030438D02*
X135876905Y-53078057D01*
X135876905Y-53078057D02*
X135829286Y-53173295D01*
X135829286Y-53173295D02*
X135829286Y-53411390D01*
X135829286Y-53411390D02*
X135876905Y-53506628D01*
X135876905Y-53506628D02*
X135924524Y-53554247D01*
X135924524Y-53554247D02*
X136019762Y-53601866D01*
X136019762Y-53601866D02*
X136210238Y-53601866D01*
X136210238Y-53601866D02*
X136305476Y-53554247D01*
X136305476Y-53554247D02*
X136353095Y-53506628D01*
X136353095Y-53506628D02*
X136400714Y-53411390D01*
X135712333Y-43954819D02*
X135379000Y-43478628D01*
X135140905Y-43954819D02*
X135140905Y-42954819D01*
X135140905Y-42954819D02*
X135521857Y-42954819D01*
X135521857Y-42954819D02*
X135617095Y-43002438D01*
X135617095Y-43002438D02*
X135664714Y-43050057D01*
X135664714Y-43050057D02*
X135712333Y-43145295D01*
X135712333Y-43145295D02*
X135712333Y-43288152D01*
X135712333Y-43288152D02*
X135664714Y-43383390D01*
X135664714Y-43383390D02*
X135617095Y-43431009D01*
X135617095Y-43431009D02*
X135521857Y-43478628D01*
X135521857Y-43478628D02*
X135140905Y-43478628D01*
X136617095Y-42954819D02*
X136140905Y-42954819D01*
X136140905Y-42954819D02*
X136093286Y-43431009D01*
X136093286Y-43431009D02*
X136140905Y-43383390D01*
X136140905Y-43383390D02*
X136236143Y-43335771D01*
X136236143Y-43335771D02*
X136474238Y-43335771D01*
X136474238Y-43335771D02*
X136569476Y-43383390D01*
X136569476Y-43383390D02*
X136617095Y-43431009D01*
X136617095Y-43431009D02*
X136664714Y-43526247D01*
X136664714Y-43526247D02*
X136664714Y-43764342D01*
X136664714Y-43764342D02*
X136617095Y-43859580D01*
X136617095Y-43859580D02*
X136569476Y-43907200D01*
X136569476Y-43907200D02*
X136474238Y-43954819D01*
X136474238Y-43954819D02*
X136236143Y-43954819D01*
X136236143Y-43954819D02*
X136140905Y-43907200D01*
X136140905Y-43907200D02*
X136093286Y-43859580D01*
X146581905Y-37792819D02*
X146581905Y-36792819D01*
X146581905Y-36792819D02*
X146820000Y-36792819D01*
X146820000Y-36792819D02*
X146962857Y-36840438D01*
X146962857Y-36840438D02*
X147058095Y-36935676D01*
X147058095Y-36935676D02*
X147105714Y-37030914D01*
X147105714Y-37030914D02*
X147153333Y-37221390D01*
X147153333Y-37221390D02*
X147153333Y-37364247D01*
X147153333Y-37364247D02*
X147105714Y-37554723D01*
X147105714Y-37554723D02*
X147058095Y-37649961D01*
X147058095Y-37649961D02*
X146962857Y-37745200D01*
X146962857Y-37745200D02*
X146820000Y-37792819D01*
X146820000Y-37792819D02*
X146581905Y-37792819D01*
X148105714Y-37792819D02*
X147534286Y-37792819D01*
X147820000Y-37792819D02*
X147820000Y-36792819D01*
X147820000Y-36792819D02*
X147724762Y-36935676D01*
X147724762Y-36935676D02*
X147629524Y-37030914D01*
X147629524Y-37030914D02*
X147534286Y-37078533D01*
X135469333Y-32966819D02*
X135136000Y-32490628D01*
X134897905Y-32966819D02*
X134897905Y-31966819D01*
X134897905Y-31966819D02*
X135278857Y-31966819D01*
X135278857Y-31966819D02*
X135374095Y-32014438D01*
X135374095Y-32014438D02*
X135421714Y-32062057D01*
X135421714Y-32062057D02*
X135469333Y-32157295D01*
X135469333Y-32157295D02*
X135469333Y-32300152D01*
X135469333Y-32300152D02*
X135421714Y-32395390D01*
X135421714Y-32395390D02*
X135374095Y-32443009D01*
X135374095Y-32443009D02*
X135278857Y-32490628D01*
X135278857Y-32490628D02*
X134897905Y-32490628D01*
X135802667Y-31966819D02*
X136469333Y-31966819D01*
X136469333Y-31966819D02*
X136040762Y-32966819D01*
X132707142Y-43634819D02*
X132373809Y-43158628D01*
X132135714Y-43634819D02*
X132135714Y-42634819D01*
X132135714Y-42634819D02*
X132516666Y-42634819D01*
X132516666Y-42634819D02*
X132611904Y-42682438D01*
X132611904Y-42682438D02*
X132659523Y-42730057D01*
X132659523Y-42730057D02*
X132707142Y-42825295D01*
X132707142Y-42825295D02*
X132707142Y-42968152D01*
X132707142Y-42968152D02*
X132659523Y-43063390D01*
X132659523Y-43063390D02*
X132611904Y-43111009D01*
X132611904Y-43111009D02*
X132516666Y-43158628D01*
X132516666Y-43158628D02*
X132135714Y-43158628D01*
X133659523Y-43634819D02*
X133088095Y-43634819D01*
X133373809Y-43634819D02*
X133373809Y-42634819D01*
X133373809Y-42634819D02*
X133278571Y-42777676D01*
X133278571Y-42777676D02*
X133183333Y-42872914D01*
X133183333Y-42872914D02*
X133088095Y-42920533D01*
X134278571Y-42634819D02*
X134373809Y-42634819D01*
X134373809Y-42634819D02*
X134469047Y-42682438D01*
X134469047Y-42682438D02*
X134516666Y-42730057D01*
X134516666Y-42730057D02*
X134564285Y-42825295D01*
X134564285Y-42825295D02*
X134611904Y-43015771D01*
X134611904Y-43015771D02*
X134611904Y-43253866D01*
X134611904Y-43253866D02*
X134564285Y-43444342D01*
X134564285Y-43444342D02*
X134516666Y-43539580D01*
X134516666Y-43539580D02*
X134469047Y-43587200D01*
X134469047Y-43587200D02*
X134373809Y-43634819D01*
X134373809Y-43634819D02*
X134278571Y-43634819D01*
X134278571Y-43634819D02*
X134183333Y-43587200D01*
X134183333Y-43587200D02*
X134135714Y-43539580D01*
X134135714Y-43539580D02*
X134088095Y-43444342D01*
X134088095Y-43444342D02*
X134040476Y-43253866D01*
X134040476Y-43253866D02*
X134040476Y-43015771D01*
X134040476Y-43015771D02*
X134088095Y-42825295D01*
X134088095Y-42825295D02*
X134135714Y-42730057D01*
X134135714Y-42730057D02*
X134183333Y-42682438D01*
X134183333Y-42682438D02*
X134278571Y-42634819D01*
X135458333Y-37858819D02*
X135125000Y-37382628D01*
X134886905Y-37858819D02*
X134886905Y-36858819D01*
X134886905Y-36858819D02*
X135267857Y-36858819D01*
X135267857Y-36858819D02*
X135363095Y-36906438D01*
X135363095Y-36906438D02*
X135410714Y-36954057D01*
X135410714Y-36954057D02*
X135458333Y-37049295D01*
X135458333Y-37049295D02*
X135458333Y-37192152D01*
X135458333Y-37192152D02*
X135410714Y-37287390D01*
X135410714Y-37287390D02*
X135363095Y-37335009D01*
X135363095Y-37335009D02*
X135267857Y-37382628D01*
X135267857Y-37382628D02*
X134886905Y-37382628D01*
X136315476Y-37192152D02*
X136315476Y-37858819D01*
X136077381Y-36811200D02*
X135839286Y-37525485D01*
X135839286Y-37525485D02*
X136458333Y-37525485D01*
X155648819Y-31519523D02*
X154648819Y-31519523D01*
X154648819Y-31519523D02*
X154648819Y-31138571D01*
X154648819Y-31138571D02*
X154696438Y-31043333D01*
X154696438Y-31043333D02*
X154744057Y-30995714D01*
X154744057Y-30995714D02*
X154839295Y-30948095D01*
X154839295Y-30948095D02*
X154982152Y-30948095D01*
X154982152Y-30948095D02*
X155077390Y-30995714D01*
X155077390Y-30995714D02*
X155125009Y-31043333D01*
X155125009Y-31043333D02*
X155172628Y-31138571D01*
X155172628Y-31138571D02*
X155172628Y-31519523D01*
X154648819Y-30329047D02*
X154648819Y-30138571D01*
X154648819Y-30138571D02*
X154696438Y-30043333D01*
X154696438Y-30043333D02*
X154791676Y-29948095D01*
X154791676Y-29948095D02*
X154982152Y-29900476D01*
X154982152Y-29900476D02*
X155315485Y-29900476D01*
X155315485Y-29900476D02*
X155505961Y-29948095D01*
X155505961Y-29948095D02*
X155601200Y-30043333D01*
X155601200Y-30043333D02*
X155648819Y-30138571D01*
X155648819Y-30138571D02*
X155648819Y-30329047D01*
X155648819Y-30329047D02*
X155601200Y-30424285D01*
X155601200Y-30424285D02*
X155505961Y-30519523D01*
X155505961Y-30519523D02*
X155315485Y-30567142D01*
X155315485Y-30567142D02*
X154982152Y-30567142D01*
X154982152Y-30567142D02*
X154791676Y-30519523D01*
X154791676Y-30519523D02*
X154696438Y-30424285D01*
X154696438Y-30424285D02*
X154648819Y-30329047D01*
X154648819Y-29567142D02*
X155648819Y-29329047D01*
X155648819Y-29329047D02*
X154934533Y-29138571D01*
X154934533Y-29138571D02*
X155648819Y-28948095D01*
X155648819Y-28948095D02*
X154648819Y-28710000D01*
X155125009Y-28329047D02*
X155125009Y-27995714D01*
X155648819Y-27852857D02*
X155648819Y-28329047D01*
X155648819Y-28329047D02*
X154648819Y-28329047D01*
X154648819Y-28329047D02*
X154648819Y-27852857D01*
X155648819Y-26852857D02*
X155172628Y-27186190D01*
X155648819Y-27424285D02*
X154648819Y-27424285D01*
X154648819Y-27424285D02*
X154648819Y-27043333D01*
X154648819Y-27043333D02*
X154696438Y-26948095D01*
X154696438Y-26948095D02*
X154744057Y-26900476D01*
X154744057Y-26900476D02*
X154839295Y-26852857D01*
X154839295Y-26852857D02*
X154982152Y-26852857D01*
X154982152Y-26852857D02*
X155077390Y-26900476D01*
X155077390Y-26900476D02*
X155125009Y-26948095D01*
X155125009Y-26948095D02*
X155172628Y-27043333D01*
X155172628Y-27043333D02*
X155172628Y-27424285D01*
X150780952Y-26108819D02*
X150971428Y-26108819D01*
X150971428Y-26108819D02*
X151066666Y-26061200D01*
X151066666Y-26061200D02*
X151114285Y-26013580D01*
X151114285Y-26013580D02*
X151209523Y-25870723D01*
X151209523Y-25870723D02*
X151257142Y-25680247D01*
X151257142Y-25680247D02*
X151257142Y-25299295D01*
X151257142Y-25299295D02*
X151209523Y-25204057D01*
X151209523Y-25204057D02*
X151161904Y-25156438D01*
X151161904Y-25156438D02*
X151066666Y-25108819D01*
X151066666Y-25108819D02*
X150876190Y-25108819D01*
X150876190Y-25108819D02*
X150780952Y-25156438D01*
X150780952Y-25156438D02*
X150733333Y-25204057D01*
X150733333Y-25204057D02*
X150685714Y-25299295D01*
X150685714Y-25299295D02*
X150685714Y-25537390D01*
X150685714Y-25537390D02*
X150733333Y-25632628D01*
X150733333Y-25632628D02*
X150780952Y-25680247D01*
X150780952Y-25680247D02*
X150876190Y-25727866D01*
X150876190Y-25727866D02*
X151066666Y-25727866D01*
X151066666Y-25727866D02*
X151161904Y-25680247D01*
X151161904Y-25680247D02*
X151209523Y-25632628D01*
X151209523Y-25632628D02*
X151257142Y-25537390D01*
X151542857Y-25108819D02*
X151876190Y-26108819D01*
X151876190Y-26108819D02*
X152209523Y-25108819D01*
X152542857Y-26108819D02*
X152542857Y-25108819D01*
X152542857Y-25108819D02*
X152780952Y-25108819D01*
X152780952Y-25108819D02*
X152923809Y-25156438D01*
X152923809Y-25156438D02*
X153019047Y-25251676D01*
X153019047Y-25251676D02*
X153066666Y-25346914D01*
X153066666Y-25346914D02*
X153114285Y-25537390D01*
X153114285Y-25537390D02*
X153114285Y-25680247D01*
X153114285Y-25680247D02*
X153066666Y-25870723D01*
X153066666Y-25870723D02*
X153019047Y-25965961D01*
X153019047Y-25965961D02*
X152923809Y-26061200D01*
X152923809Y-26061200D02*
X152780952Y-26108819D01*
X152780952Y-26108819D02*
X152542857Y-26108819D01*
X154114285Y-26013580D02*
X154066666Y-26061200D01*
X154066666Y-26061200D02*
X153923809Y-26108819D01*
X153923809Y-26108819D02*
X153828571Y-26108819D01*
X153828571Y-26108819D02*
X153685714Y-26061200D01*
X153685714Y-26061200D02*
X153590476Y-25965961D01*
X153590476Y-25965961D02*
X153542857Y-25870723D01*
X153542857Y-25870723D02*
X153495238Y-25680247D01*
X153495238Y-25680247D02*
X153495238Y-25537390D01*
X153495238Y-25537390D02*
X153542857Y-25346914D01*
X153542857Y-25346914D02*
X153590476Y-25251676D01*
X153590476Y-25251676D02*
X153685714Y-25156438D01*
X153685714Y-25156438D02*
X153828571Y-25108819D01*
X153828571Y-25108819D02*
X153923809Y-25108819D01*
X153923809Y-25108819D02*
X154066666Y-25156438D01*
X154066666Y-25156438D02*
X154114285Y-25204057D01*
X134474642Y-51855580D02*
X134427023Y-51903200D01*
X134427023Y-51903200D02*
X134284166Y-51950819D01*
X134284166Y-51950819D02*
X134188928Y-51950819D01*
X134188928Y-51950819D02*
X134046071Y-51903200D01*
X134046071Y-51903200D02*
X133950833Y-51807961D01*
X133950833Y-51807961D02*
X133903214Y-51712723D01*
X133903214Y-51712723D02*
X133855595Y-51522247D01*
X133855595Y-51522247D02*
X133855595Y-51379390D01*
X133855595Y-51379390D02*
X133903214Y-51188914D01*
X133903214Y-51188914D02*
X133950833Y-51093676D01*
X133950833Y-51093676D02*
X134046071Y-50998438D01*
X134046071Y-50998438D02*
X134188928Y-50950819D01*
X134188928Y-50950819D02*
X134284166Y-50950819D01*
X134284166Y-50950819D02*
X134427023Y-50998438D01*
X134427023Y-50998438D02*
X134474642Y-51046057D01*
X135427023Y-51950819D02*
X134855595Y-51950819D01*
X135141309Y-51950819D02*
X135141309Y-50950819D01*
X135141309Y-50950819D02*
X135046071Y-51093676D01*
X135046071Y-51093676D02*
X134950833Y-51188914D01*
X134950833Y-51188914D02*
X134855595Y-51236533D01*
X136046071Y-50950819D02*
X136141309Y-50950819D01*
X136141309Y-50950819D02*
X136236547Y-50998438D01*
X136236547Y-50998438D02*
X136284166Y-51046057D01*
X136284166Y-51046057D02*
X136331785Y-51141295D01*
X136331785Y-51141295D02*
X136379404Y-51331771D01*
X136379404Y-51331771D02*
X136379404Y-51569866D01*
X136379404Y-51569866D02*
X136331785Y-51760342D01*
X136331785Y-51760342D02*
X136284166Y-51855580D01*
X136284166Y-51855580D02*
X136236547Y-51903200D01*
X136236547Y-51903200D02*
X136141309Y-51950819D01*
X136141309Y-51950819D02*
X136046071Y-51950819D01*
X136046071Y-51950819D02*
X135950833Y-51903200D01*
X135950833Y-51903200D02*
X135903214Y-51855580D01*
X135903214Y-51855580D02*
X135855595Y-51760342D01*
X135855595Y-51760342D02*
X135807976Y-51569866D01*
X135807976Y-51569866D02*
X135807976Y-51331771D01*
X135807976Y-51331771D02*
X135855595Y-51141295D01*
X135855595Y-51141295D02*
X135903214Y-51046057D01*
X135903214Y-51046057D02*
X135950833Y-50998438D01*
X135950833Y-50998438D02*
X136046071Y-50950819D01*
X135458833Y-47886819D02*
X135125500Y-47410628D01*
X134887405Y-47886819D02*
X134887405Y-46886819D01*
X134887405Y-46886819D02*
X135268357Y-46886819D01*
X135268357Y-46886819D02*
X135363595Y-46934438D01*
X135363595Y-46934438D02*
X135411214Y-46982057D01*
X135411214Y-46982057D02*
X135458833Y-47077295D01*
X135458833Y-47077295D02*
X135458833Y-47220152D01*
X135458833Y-47220152D02*
X135411214Y-47315390D01*
X135411214Y-47315390D02*
X135363595Y-47363009D01*
X135363595Y-47363009D02*
X135268357Y-47410628D01*
X135268357Y-47410628D02*
X134887405Y-47410628D01*
X136315976Y-46886819D02*
X136125500Y-46886819D01*
X136125500Y-46886819D02*
X136030262Y-46934438D01*
X136030262Y-46934438D02*
X135982643Y-46982057D01*
X135982643Y-46982057D02*
X135887405Y-47124914D01*
X135887405Y-47124914D02*
X135839786Y-47315390D01*
X135839786Y-47315390D02*
X135839786Y-47696342D01*
X135839786Y-47696342D02*
X135887405Y-47791580D01*
X135887405Y-47791580D02*
X135935024Y-47839200D01*
X135935024Y-47839200D02*
X136030262Y-47886819D01*
X136030262Y-47886819D02*
X136220738Y-47886819D01*
X136220738Y-47886819D02*
X136315976Y-47839200D01*
X136315976Y-47839200D02*
X136363595Y-47791580D01*
X136363595Y-47791580D02*
X136411214Y-47696342D01*
X136411214Y-47696342D02*
X136411214Y-47458247D01*
X136411214Y-47458247D02*
X136363595Y-47363009D01*
X136363595Y-47363009D02*
X136315976Y-47315390D01*
X136315976Y-47315390D02*
X136220738Y-47267771D01*
X136220738Y-47267771D02*
X136030262Y-47267771D01*
X136030262Y-47267771D02*
X135935024Y-47315390D01*
X135935024Y-47315390D02*
X135887405Y-47363009D01*
X135887405Y-47363009D02*
X135839786Y-47458247D01*
X147280333Y-43793580D02*
X147232714Y-43841200D01*
X147232714Y-43841200D02*
X147089857Y-43888819D01*
X147089857Y-43888819D02*
X146994619Y-43888819D01*
X146994619Y-43888819D02*
X146851762Y-43841200D01*
X146851762Y-43841200D02*
X146756524Y-43745961D01*
X146756524Y-43745961D02*
X146708905Y-43650723D01*
X146708905Y-43650723D02*
X146661286Y-43460247D01*
X146661286Y-43460247D02*
X146661286Y-43317390D01*
X146661286Y-43317390D02*
X146708905Y-43126914D01*
X146708905Y-43126914D02*
X146756524Y-43031676D01*
X146756524Y-43031676D02*
X146851762Y-42936438D01*
X146851762Y-42936438D02*
X146994619Y-42888819D01*
X146994619Y-42888819D02*
X147089857Y-42888819D01*
X147089857Y-42888819D02*
X147232714Y-42936438D01*
X147232714Y-42936438D02*
X147280333Y-42984057D01*
X147661286Y-42984057D02*
X147708905Y-42936438D01*
X147708905Y-42936438D02*
X147804143Y-42888819D01*
X147804143Y-42888819D02*
X148042238Y-42888819D01*
X148042238Y-42888819D02*
X148137476Y-42936438D01*
X148137476Y-42936438D02*
X148185095Y-42984057D01*
X148185095Y-42984057D02*
X148232714Y-43079295D01*
X148232714Y-43079295D02*
X148232714Y-43174533D01*
X148232714Y-43174533D02*
X148185095Y-43317390D01*
X148185095Y-43317390D02*
X147613667Y-43888819D01*
X147613667Y-43888819D02*
X148232714Y-43888819D01*
X153108819Y-48939666D02*
X152632628Y-49272999D01*
X153108819Y-49511094D02*
X152108819Y-49511094D01*
X152108819Y-49511094D02*
X152108819Y-49130142D01*
X152108819Y-49130142D02*
X152156438Y-49034904D01*
X152156438Y-49034904D02*
X152204057Y-48987285D01*
X152204057Y-48987285D02*
X152299295Y-48939666D01*
X152299295Y-48939666D02*
X152442152Y-48939666D01*
X152442152Y-48939666D02*
X152537390Y-48987285D01*
X152537390Y-48987285D02*
X152585009Y-49034904D01*
X152585009Y-49034904D02*
X152632628Y-49130142D01*
X152632628Y-49130142D02*
X152632628Y-49511094D01*
X152108819Y-48606332D02*
X152108819Y-47987285D01*
X152108819Y-47987285D02*
X152489771Y-48320618D01*
X152489771Y-48320618D02*
X152489771Y-48177761D01*
X152489771Y-48177761D02*
X152537390Y-48082523D01*
X152537390Y-48082523D02*
X152585009Y-48034904D01*
X152585009Y-48034904D02*
X152680247Y-47987285D01*
X152680247Y-47987285D02*
X152918342Y-47987285D01*
X152918342Y-47987285D02*
X153013580Y-48034904D01*
X153013580Y-48034904D02*
X153061200Y-48082523D01*
X153061200Y-48082523D02*
X153108819Y-48177761D01*
X153108819Y-48177761D02*
X153108819Y-48463475D01*
X153108819Y-48463475D02*
X153061200Y-48558713D01*
X153061200Y-48558713D02*
X153013580Y-48606332D01*
X147478761Y-40870057D02*
X147383523Y-40822438D01*
X147383523Y-40822438D02*
X147288285Y-40727200D01*
X147288285Y-40727200D02*
X147145428Y-40584342D01*
X147145428Y-40584342D02*
X147050190Y-40536723D01*
X147050190Y-40536723D02*
X146954952Y-40536723D01*
X147002571Y-40774819D02*
X146907333Y-40727200D01*
X146907333Y-40727200D02*
X146812095Y-40631961D01*
X146812095Y-40631961D02*
X146764476Y-40441485D01*
X146764476Y-40441485D02*
X146764476Y-40108152D01*
X146764476Y-40108152D02*
X146812095Y-39917676D01*
X146812095Y-39917676D02*
X146907333Y-39822438D01*
X146907333Y-39822438D02*
X147002571Y-39774819D01*
X147002571Y-39774819D02*
X147193047Y-39774819D01*
X147193047Y-39774819D02*
X147288285Y-39822438D01*
X147288285Y-39822438D02*
X147383523Y-39917676D01*
X147383523Y-39917676D02*
X147431142Y-40108152D01*
X147431142Y-40108152D02*
X147431142Y-40441485D01*
X147431142Y-40441485D02*
X147383523Y-40631961D01*
X147383523Y-40631961D02*
X147288285Y-40727200D01*
X147288285Y-40727200D02*
X147193047Y-40774819D01*
X147193047Y-40774819D02*
X147002571Y-40774819D01*
X148383523Y-40774819D02*
X147812095Y-40774819D01*
X148097809Y-40774819D02*
X148097809Y-39774819D01*
X148097809Y-39774819D02*
X148002571Y-39917676D01*
X148002571Y-39917676D02*
X147907333Y-40012914D01*
X147907333Y-40012914D02*
X147812095Y-40060533D01*
X135226333Y-28619580D02*
X135178714Y-28667200D01*
X135178714Y-28667200D02*
X135035857Y-28714819D01*
X135035857Y-28714819D02*
X134940619Y-28714819D01*
X134940619Y-28714819D02*
X134797762Y-28667200D01*
X134797762Y-28667200D02*
X134702524Y-28571961D01*
X134702524Y-28571961D02*
X134654905Y-28476723D01*
X134654905Y-28476723D02*
X134607286Y-28286247D01*
X134607286Y-28286247D02*
X134607286Y-28143390D01*
X134607286Y-28143390D02*
X134654905Y-27952914D01*
X134654905Y-27952914D02*
X134702524Y-27857676D01*
X134702524Y-27857676D02*
X134797762Y-27762438D01*
X134797762Y-27762438D02*
X134940619Y-27714819D01*
X134940619Y-27714819D02*
X135035857Y-27714819D01*
X135035857Y-27714819D02*
X135178714Y-27762438D01*
X135178714Y-27762438D02*
X135226333Y-27810057D01*
X136131095Y-27714819D02*
X135654905Y-27714819D01*
X135654905Y-27714819D02*
X135607286Y-28191009D01*
X135607286Y-28191009D02*
X135654905Y-28143390D01*
X135654905Y-28143390D02*
X135750143Y-28095771D01*
X135750143Y-28095771D02*
X135988238Y-28095771D01*
X135988238Y-28095771D02*
X136083476Y-28143390D01*
X136083476Y-28143390D02*
X136131095Y-28191009D01*
X136131095Y-28191009D02*
X136178714Y-28286247D01*
X136178714Y-28286247D02*
X136178714Y-28524342D01*
X136178714Y-28524342D02*
X136131095Y-28619580D01*
X136131095Y-28619580D02*
X136083476Y-28667200D01*
X136083476Y-28667200D02*
X135988238Y-28714819D01*
X135988238Y-28714819D02*
X135750143Y-28714819D01*
X135750143Y-28714819D02*
X135654905Y-28667200D01*
X135654905Y-28667200D02*
X135607286Y-28619580D01*
X155299580Y-48939666D02*
X155347200Y-48987285D01*
X155347200Y-48987285D02*
X155394819Y-49130142D01*
X155394819Y-49130142D02*
X155394819Y-49225380D01*
X155394819Y-49225380D02*
X155347200Y-49368237D01*
X155347200Y-49368237D02*
X155251961Y-49463475D01*
X155251961Y-49463475D02*
X155156723Y-49511094D01*
X155156723Y-49511094D02*
X154966247Y-49558713D01*
X154966247Y-49558713D02*
X154823390Y-49558713D01*
X154823390Y-49558713D02*
X154632914Y-49511094D01*
X154632914Y-49511094D02*
X154537676Y-49463475D01*
X154537676Y-49463475D02*
X154442438Y-49368237D01*
X154442438Y-49368237D02*
X154394819Y-49225380D01*
X154394819Y-49225380D02*
X154394819Y-49130142D01*
X154394819Y-49130142D02*
X154442438Y-48987285D01*
X154442438Y-48987285D02*
X154490057Y-48939666D01*
X155394819Y-47987285D02*
X155394819Y-48558713D01*
X155394819Y-48272999D02*
X154394819Y-48272999D01*
X154394819Y-48272999D02*
X154537676Y-48368237D01*
X154537676Y-48368237D02*
X154632914Y-48463475D01*
X154632914Y-48463475D02*
X154680533Y-48558713D01*
X146581905Y-47952819D02*
X146581905Y-46952819D01*
X146581905Y-46952819D02*
X146820000Y-46952819D01*
X146820000Y-46952819D02*
X146962857Y-47000438D01*
X146962857Y-47000438D02*
X147058095Y-47095676D01*
X147058095Y-47095676D02*
X147105714Y-47190914D01*
X147105714Y-47190914D02*
X147153333Y-47381390D01*
X147153333Y-47381390D02*
X147153333Y-47524247D01*
X147153333Y-47524247D02*
X147105714Y-47714723D01*
X147105714Y-47714723D02*
X147058095Y-47809961D01*
X147058095Y-47809961D02*
X146962857Y-47905200D01*
X146962857Y-47905200D02*
X146820000Y-47952819D01*
X146820000Y-47952819D02*
X146581905Y-47952819D01*
X147486667Y-46952819D02*
X148105714Y-46952819D01*
X148105714Y-46952819D02*
X147772381Y-47333771D01*
X147772381Y-47333771D02*
X147915238Y-47333771D01*
X147915238Y-47333771D02*
X148010476Y-47381390D01*
X148010476Y-47381390D02*
X148058095Y-47429009D01*
X148058095Y-47429009D02*
X148105714Y-47524247D01*
X148105714Y-47524247D02*
X148105714Y-47762342D01*
X148105714Y-47762342D02*
X148058095Y-47857580D01*
X148058095Y-47857580D02*
X148010476Y-47905200D01*
X148010476Y-47905200D02*
X147915238Y-47952819D01*
X147915238Y-47952819D02*
X147629524Y-47952819D01*
X147629524Y-47952819D02*
X147534286Y-47905200D01*
X147534286Y-47905200D02*
X147486667Y-47857580D01*
X132239905Y-45412819D02*
X132239905Y-44412819D01*
X132239905Y-44412819D02*
X132478000Y-44412819D01*
X132478000Y-44412819D02*
X132620857Y-44460438D01*
X132620857Y-44460438D02*
X132716095Y-44555676D01*
X132716095Y-44555676D02*
X132763714Y-44650914D01*
X132763714Y-44650914D02*
X132811333Y-44841390D01*
X132811333Y-44841390D02*
X132811333Y-44984247D01*
X132811333Y-44984247D02*
X132763714Y-45174723D01*
X132763714Y-45174723D02*
X132716095Y-45269961D01*
X132716095Y-45269961D02*
X132620857Y-45365200D01*
X132620857Y-45365200D02*
X132478000Y-45412819D01*
X132478000Y-45412819D02*
X132239905Y-45412819D01*
X133668476Y-44746152D02*
X133668476Y-45412819D01*
X133430381Y-44365200D02*
X133192286Y-45079485D01*
X133192286Y-45079485D02*
X133811333Y-45079485D01*
D12*
%TO.C,J6*%
X130750000Y-38100000D02*
X130750000Y-40700000D01*
X133410000Y-38100000D02*
X133410000Y-40700000D01*
X130750000Y-38100000D02*
X133410000Y-38100000D01*
X132080000Y-35500000D02*
X133410000Y-35500000D01*
X133410000Y-35500000D02*
X133410000Y-36830000D01*
X130750000Y-40700000D02*
X133410000Y-40700000D01*
%TO.C,J5*%
X130750000Y-29464000D02*
X130750000Y-32064000D01*
X133410000Y-29464000D02*
X133410000Y-32064000D01*
X130750000Y-29464000D02*
X133410000Y-29464000D01*
X132080000Y-26864000D02*
X133410000Y-26864000D01*
X133410000Y-26864000D02*
X133410000Y-28194000D01*
X130750000Y-32064000D02*
X133410000Y-32064000D01*
%TO.C,U1*%
X149586000Y-38359000D02*
X149586000Y-41809000D01*
X149586000Y-38359000D02*
X149586000Y-36409000D01*
X154706000Y-38359000D02*
X154706000Y-40309000D01*
X154706000Y-38359000D02*
X154706000Y-36409000D01*
%TO.C,C8*%
X138422748Y-50265000D02*
X138945252Y-50265000D01*
X138422748Y-48795000D02*
X138945252Y-48795000D01*
%TO.C,J4*%
X131378000Y-50795000D02*
X131378000Y-53395000D01*
X128718000Y-53395000D02*
X131378000Y-53395000D01*
X128718000Y-50795000D02*
X131378000Y-50795000D01*
X128718000Y-50795000D02*
X128718000Y-53395000D01*
X128718000Y-49525000D02*
X128718000Y-48195000D01*
X128718000Y-48195000D02*
X130048000Y-48195000D01*
%TO.C,J1*%
X149800000Y-53146000D02*
X149800000Y-51816000D01*
X151130000Y-53146000D02*
X149800000Y-53146000D01*
X152400000Y-53146000D02*
X155000000Y-53146000D01*
X152400000Y-53146000D02*
X152400000Y-50486000D01*
X155000000Y-53146000D02*
X155000000Y-50486000D01*
X152400000Y-50486000D02*
X155000000Y-50486000D01*
%TO.C,C9*%
X144660252Y-52859000D02*
X144137748Y-52859000D01*
X144660252Y-54329000D02*
X144137748Y-54329000D01*
%TO.C,C6*%
X144660252Y-33247000D02*
X144137748Y-33247000D01*
X144660252Y-31777000D02*
X144137748Y-31777000D01*
%TO.C,C14*%
X158469000Y-43431748D02*
X158469000Y-43954252D01*
X156999000Y-43431748D02*
X156999000Y-43954252D01*
%TO.C,R1*%
X158469000Y-39655936D02*
X158469000Y-40110064D01*
X156999000Y-39655936D02*
X156999000Y-40110064D01*
%TO.C,Q2*%
X144277500Y-27838000D02*
X142477500Y-27838000D01*
X144277500Y-27838000D02*
X145077500Y-27838000D01*
X144277500Y-30958000D02*
X143477500Y-30958000D01*
X144277500Y-30958000D02*
X145077500Y-30958000D01*
%TO.C,C3*%
X138411748Y-38701000D02*
X138934252Y-38701000D01*
X138411748Y-40171000D02*
X138934252Y-40171000D01*
%TO.C,D2*%
X141808000Y-25162000D02*
X141808000Y-27162000D01*
X141808000Y-25162000D02*
X145668000Y-25162000D01*
X141808000Y-27162000D02*
X145668000Y-27162000D01*
%TO.C,C7*%
X138945252Y-31149000D02*
X138422748Y-31149000D01*
X138945252Y-29679000D02*
X138422748Y-29679000D01*
%TO.C,C4*%
X138934252Y-42203000D02*
X138411748Y-42203000D01*
X138934252Y-40733000D02*
X138411748Y-40733000D01*
%TO.C,R8*%
X138456936Y-25427000D02*
X138911064Y-25427000D01*
X138456936Y-26897000D02*
X138911064Y-26897000D01*
%TO.C,Q3*%
X144272000Y-52106000D02*
X145072000Y-52106000D01*
X144272000Y-52106000D02*
X143472000Y-52106000D01*
X144272000Y-48986000D02*
X145072000Y-48986000D01*
X144272000Y-48986000D02*
X142472000Y-48986000D01*
%TO.C,R2*%
X149125000Y-45952064D02*
X149125000Y-45497936D01*
X150595000Y-45952064D02*
X150595000Y-45497936D01*
%TO.C,R9*%
X138446436Y-54329000D02*
X138900564Y-54329000D01*
X138446436Y-52859000D02*
X138900564Y-52859000D01*
%TO.C,R5*%
X138445936Y-42765000D02*
X138900064Y-42765000D01*
X138445936Y-44235000D02*
X138900064Y-44235000D01*
%TO.C,D1*%
X141808000Y-36338000D02*
X141808000Y-38338000D01*
X141808000Y-36338000D02*
X145668000Y-36338000D01*
X141808000Y-38338000D02*
X145668000Y-38338000D01*
%TO.C,R7*%
X138456936Y-31777000D02*
X138911064Y-31777000D01*
X138456936Y-33247000D02*
X138911064Y-33247000D01*
%TO.C,R10*%
X130157064Y-42318000D02*
X129702936Y-42318000D01*
X130157064Y-43788000D02*
X129702936Y-43788000D01*
%TO.C,R4*%
X138445936Y-36669000D02*
X138900064Y-36669000D01*
X138445936Y-38139000D02*
X138900064Y-38139000D01*
%TO.C,J3*%
X153730000Y-31810000D02*
X152400000Y-31810000D01*
X153730000Y-30480000D02*
X153730000Y-31810000D01*
X153730000Y-29210000D02*
X153730000Y-26610000D01*
X153730000Y-29210000D02*
X151070000Y-29210000D01*
X153730000Y-26610000D02*
X151070000Y-26610000D01*
X151070000Y-29210000D02*
X151070000Y-26610000D01*
%TO.C,C10*%
X138945252Y-50827000D02*
X138422748Y-50827000D01*
X138945252Y-52297000D02*
X138422748Y-52297000D01*
%TO.C,R6*%
X138446436Y-48167000D02*
X138900564Y-48167000D01*
X138446436Y-46697000D02*
X138900564Y-46697000D01*
%TO.C,C2*%
X144660252Y-44169000D02*
X144137748Y-44169000D01*
X144660252Y-42699000D02*
X144137748Y-42699000D01*
%TO.C,R3*%
X151919000Y-45952064D02*
X151919000Y-45497936D01*
X153389000Y-45952064D02*
X153389000Y-45497936D01*
%TO.C,Q1*%
X144272000Y-38826000D02*
X142472000Y-38826000D01*
X144272000Y-38826000D02*
X145072000Y-38826000D01*
X144272000Y-41946000D02*
X143472000Y-41946000D01*
X144272000Y-41946000D02*
X145072000Y-41946000D01*
%TO.C,C5*%
X138422748Y-27459000D02*
X138945252Y-27459000D01*
X138422748Y-28929000D02*
X138945252Y-28929000D01*
%TO.C,C1*%
X155675000Y-45463748D02*
X155675000Y-45986252D01*
X154205000Y-45463748D02*
X154205000Y-45986252D01*
%TO.C,D3*%
X141808000Y-48498000D02*
X145668000Y-48498000D01*
X141808000Y-46498000D02*
X145668000Y-46498000D01*
X141808000Y-46498000D02*
X141808000Y-48498000D01*
%TO.C,D4*%
X128930000Y-46045000D02*
X131790000Y-46045000D01*
X131790000Y-44125000D02*
X128930000Y-44125000D01*
X131790000Y-46045000D02*
X131790000Y-44125000D01*
%TD*%
M02*
