M48
; DRILL file {KiCad 7.0.8-7.0.8~ubuntu22.04.1} date Sun 15 Oct 2023 23:00:36 BST
; FORMAT={-:-/ absolute / inch / decimal}
; #@! TF.CreationDate,2023-10-15T23:00:36+01:00
; #@! TF.GenerationSoftware,Kicad,Pcbnew,7.0.8-7.0.8~ubuntu22.04.1
; #@! TF.FileFunction,Plated,1,2,PTH
FMAT,2
INCH
; #@! TA.AperFunction,Plated,PTH,ViaDrill
T1C0.0157
; #@! TA.AperFunction,Plated,PTH,ComponentDrill
T2C0.0394
%
G90
G05
T1
X5.0Y-1.69
X5.0Y-1.8
X5.0Y-2.125
X5.03Y-1.025
X5.03Y-1.28
X5.03Y-1.37
X5.03Y-1.6
X5.12Y-2.15
X5.22Y-2.02
X5.24Y-1.89
X5.25Y-1.3
X5.25Y-2.125
X5.27Y-1.02
X5.27Y-1.81
X5.3Y-1.38
X5.37Y-1.79
X5.4Y-1.38
X5.49Y-1.38
X5.49Y-1.79
X5.56Y-1.03
X5.56Y-1.24
X5.56Y-1.47
X5.56Y-1.68
X5.56Y-1.87
X5.57Y-2.11
X5.64Y-1.37
X5.64Y-1.79
X5.8Y-1.53
X5.8Y-1.78
X5.82Y-1.09
X5.82Y-1.2
X5.82Y-1.34
X5.82Y-1.93
X5.82Y-2.05
X5.83Y-1.64
X5.9Y-1.01
X5.9Y-1.15
X5.9Y-1.27
X5.93Y-1.5
X5.98Y-1.69
X6.03Y-1.3
X6.11Y-1.68
X6.12Y-1.0
X6.14Y-1.3
X6.14Y-1.45
X6.16Y-1.15
X6.16Y-1.85
X6.16Y-1.96
X6.16Y-2.1
X6.19Y-1.23
X6.19Y-1.37
X6.23Y-1.0
X6.24Y-2.03
X6.24Y-2.15
X6.26Y-1.09
T2
X5.12Y-1.9498
X5.12Y-2.0498
X5.2Y-1.11
X5.2Y-1.21
X5.2Y-1.45
X5.2Y-1.55
X5.95Y-2.04
X6.0Y-1.1
X6.0Y-1.2
X6.05Y-2.04
T0
M30
