%TF.GenerationSoftware,KiCad,Pcbnew,7.0.8-7.0.8~ubuntu22.04.1*%
%TF.CreationDate,2023-10-15T23:00:33+01:00*%
%TF.ProjectId,jfet-555-bypass,6a666574-2d35-4353-952d-627970617373,rev?*%
%TF.SameCoordinates,Original*%
%TF.FileFunction,Paste,Top*%
%TF.FilePolarity,Positive*%
%FSLAX46Y46*%
G04 Gerber Fmt 4.6, Leading zero omitted, Abs format (unit mm)*
G04 Created by KiCad (PCBNEW 7.0.8-7.0.8~ubuntu22.04.1) date 2023-10-15 23:00:33*
%MOMM*%
%LPD*%
G01*
G04 APERTURE LIST*
G04 Aperture macros list*
%AMRoundRect*
0 Rectangle with rounded corners*
0 $1 Rounding radius*
0 $2 $3 $4 $5 $6 $7 $8 $9 X,Y pos of 4 corners*
0 Add a 4 corners polygon primitive as box body*
4,1,4,$2,$3,$4,$5,$6,$7,$8,$9,$2,$3,0*
0 Add four circle primitives for the rounded corners*
1,1,$1+$1,$2,$3*
1,1,$1+$1,$4,$5*
1,1,$1+$1,$6,$7*
1,1,$1+$1,$8,$9*
0 Add four rect primitives between the rounded corners*
20,1,$1+$1,$2,$3,$4,$5,0*
20,1,$1+$1,$4,$5,$6,$7,0*
20,1,$1+$1,$6,$7,$8,$9,0*
20,1,$1+$1,$8,$9,$2,$3,0*%
G04 Aperture macros list end*
%ADD10RoundRect,0.150000X0.150000X-0.825000X0.150000X0.825000X-0.150000X0.825000X-0.150000X-0.825000X0*%
%ADD11RoundRect,0.250000X-0.337500X-0.475000X0.337500X-0.475000X0.337500X0.475000X-0.337500X0.475000X0*%
%ADD12RoundRect,0.250000X0.337500X0.475000X-0.337500X0.475000X-0.337500X-0.475000X0.337500X-0.475000X0*%
%ADD13RoundRect,0.250000X-0.475000X0.337500X-0.475000X-0.337500X0.475000X-0.337500X0.475000X0.337500X0*%
%ADD14RoundRect,0.250000X-0.450000X0.350000X-0.450000X-0.350000X0.450000X-0.350000X0.450000X0.350000X0*%
%ADD15RoundRect,0.150000X-0.512500X-0.150000X0.512500X-0.150000X0.512500X0.150000X-0.512500X0.150000X0*%
%ADD16RoundRect,0.250000X-0.300000X-0.300000X0.300000X-0.300000X0.300000X0.300000X-0.300000X0.300000X0*%
%ADD17RoundRect,0.250000X-0.350000X-0.450000X0.350000X-0.450000X0.350000X0.450000X-0.350000X0.450000X0*%
%ADD18RoundRect,0.250000X0.450000X-0.350000X0.450000X0.350000X-0.450000X0.350000X-0.450000X-0.350000X0*%
%ADD19RoundRect,0.250000X0.350000X0.450000X-0.350000X0.450000X-0.350000X-0.450000X0.350000X-0.450000X0*%
%ADD20RoundRect,0.250000X0.325000X0.450000X-0.325000X0.450000X-0.325000X-0.450000X0.325000X-0.450000X0*%
G04 APERTURE END LIST*
D10*
%TO.C,U1*%
X150241000Y-40834000D03*
X151511000Y-40834000D03*
X152781000Y-40834000D03*
X154051000Y-40834000D03*
X154051000Y-35884000D03*
X152781000Y-35884000D03*
X151511000Y-35884000D03*
X150241000Y-35884000D03*
%TD*%
D11*
%TO.C,C8*%
X139721500Y-49530000D03*
X137646500Y-49530000D03*
%TD*%
D12*
%TO.C,C9*%
X143361500Y-53594000D03*
X145436500Y-53594000D03*
%TD*%
%TO.C,C6*%
X145436500Y-32512000D03*
X143361500Y-32512000D03*
%TD*%
D13*
%TO.C,C14*%
X157734000Y-42655500D03*
X157734000Y-44730500D03*
%TD*%
D14*
%TO.C,R1*%
X157734000Y-38883000D03*
X157734000Y-40883000D03*
%TD*%
D15*
%TO.C,Q2*%
X143140000Y-28448000D03*
X143140000Y-30348000D03*
X145415000Y-29398000D03*
%TD*%
D11*
%TO.C,C3*%
X137635500Y-39436000D03*
X139710500Y-39436000D03*
%TD*%
D16*
%TO.C,D2*%
X142618000Y-26162000D03*
X145418000Y-26162000D03*
%TD*%
D12*
%TO.C,C7*%
X139721500Y-30414000D03*
X137646500Y-30414000D03*
%TD*%
%TO.C,C4*%
X139710500Y-41468000D03*
X137635500Y-41468000D03*
%TD*%
D17*
%TO.C,R8*%
X137684000Y-26162000D03*
X139684000Y-26162000D03*
%TD*%
D15*
%TO.C,Q3*%
X145409500Y-50546000D03*
X143134500Y-51496000D03*
X143134500Y-49596000D03*
%TD*%
D18*
%TO.C,R2*%
X149860000Y-46725000D03*
X149860000Y-44725000D03*
%TD*%
D17*
%TO.C,R9*%
X139673500Y-53594000D03*
X137673500Y-53594000D03*
%TD*%
%TO.C,R5*%
X137673000Y-43500000D03*
X139673000Y-43500000D03*
%TD*%
D16*
%TO.C,D1*%
X142618000Y-37338000D03*
X145418000Y-37338000D03*
%TD*%
D17*
%TO.C,R7*%
X137684000Y-32512000D03*
X139684000Y-32512000D03*
%TD*%
D19*
%TO.C,R10*%
X128930000Y-43053000D03*
X130930000Y-43053000D03*
%TD*%
D17*
%TO.C,R4*%
X137673000Y-37404000D03*
X139673000Y-37404000D03*
%TD*%
D12*
%TO.C,C10*%
X137646500Y-51562000D03*
X139721500Y-51562000D03*
%TD*%
D17*
%TO.C,R6*%
X139673500Y-47432000D03*
X137673500Y-47432000D03*
%TD*%
D12*
%TO.C,C2*%
X145436500Y-43434000D03*
X143361500Y-43434000D03*
%TD*%
D18*
%TO.C,R3*%
X152654000Y-46725000D03*
X152654000Y-44725000D03*
%TD*%
D15*
%TO.C,Q1*%
X143134500Y-39436000D03*
X143134500Y-41336000D03*
X145409500Y-40386000D03*
%TD*%
D11*
%TO.C,C5*%
X137646500Y-28194000D03*
X139721500Y-28194000D03*
%TD*%
D13*
%TO.C,C1*%
X154940000Y-44687500D03*
X154940000Y-46762500D03*
%TD*%
D16*
%TO.C,D3*%
X145418000Y-47498000D03*
X142618000Y-47498000D03*
%TD*%
D20*
%TO.C,D4*%
X128905000Y-45085000D03*
X130955000Y-45085000D03*
%TD*%
M02*
